<svg width="85" height="94" viewBox="0 0 85 94" fill="none" xmlns="http://www.w3.org/2000/svg">
<path fill-rule="evenodd" clip-rule="evenodd" d="M73.78 8.75079C63.66 17.9828 32.489 45.5258 29.589 47.7978C28.073 48.9848 27.232 48.5938 22.607 44.5478C19.714 42.0168 17.046 39.9468 16.678 39.9468C16.31 39.9468 15.53 41.3208 14.944 43.0008C13.936 45.8928 14.425 46.8788 24.096 61.4728C29.715 69.9528 34.623 76.7908 35.001 76.6688C35.38 76.5468 42.524 65.8718 50.876 52.9468C67.274 27.5708 67.99 26.5538 67.128 29.8508C66.751 31.2908 67.268 32.8018 68.635 34.2568C72.614 38.4928 75.041 45.7458 75.091 53.5508C75.131 59.7928 74.676 61.7828 71.934 67.3538C60.068 91.4568 26.369 90.7398 15.027 66.1428C6.11998 46.8298 19.814 23.9198 41.294 22.1968C44.604 21.9308 49.101 22.2078 51.285 22.8108C55.052 23.8518 55.425 23.7458 58.496 20.7688C60.278 19.0428 61.519 17.2808 61.256 16.8538C60.992 16.4268 58.197 15.3228 55.045 14.3988C46.309 11.8398 34.525 12.8298 26.462 16.7988C20.272 19.8458 13.649 25.2728 10.555 29.8308L8.93698 32.2148L4.65198 28.1378C2.29498 25.8948 0.208976 24.2178 0.0169759 24.4098C-0.175024 24.6018 1.28398 27.1938 3.26098 30.1698L6.85298 35.5808L5.27998 40.0138C-1.61202 59.4368 7.72498 81.5098 26.689 90.6238C34.529 94.3918 48.582 95.0468 57.143 92.0438C68.431 88.0848 77.627 79.2038 81.936 68.0998C84.721 60.9218 84.967 46.7998 82.426 39.9468C80.347 34.3368 74.003 24.9558 71.706 24.0928C70.224 23.5368 70.708 22.3368 75.19 15.4468C83.182 3.16179 85.049 -0.058208 84.145 0.000792039C83.687 0.030792 79.023 3.96779 73.78 8.75079Z" fill="#B5B5B5"/>
</svg>
