<svg width="122" height="122" viewBox="0 0 122 122" fill="none" xmlns="http://www.w3.org/2000/svg">
<path d="M14.5 61C14.5 35.3188 35.3188 14.5 61 14.5C68.6779 14.5 75.9283 16.3626 82.3164 19.6631C83.5429 20.2969 84.0234 21.8056 83.3896 23.0322C82.7559 24.2585 81.248 24.7389 80.0215 24.1055C74.3262 21.163 67.8607 19.5 61 19.5C38.0802 19.5 19.5 38.0802 19.5 61C19.5 83.9198 38.0802 102.5 61 102.5C74.3555 102.5 86.237 96.194 93.832 86.3867C94.6774 85.2951 96.2482 85.095 97.3398 85.9404C98.4314 86.7858 98.6305 88.3566 97.7852 89.4482C89.2839 100.426 75.9675 107.5 61 107.5C35.3188 107.5 14.5 86.6812 14.5 61Z" fill="white"/>
<g filter="url(#filter0_di_8394_58)">
<path d="M97.0566 60.5283C97.0566 80.7023 80.7023 97.0566 60.5283 97.0566C40.3543 97.0566 24 80.7023 24 60.5283C24 40.3543 40.3543 24 60.5283 24C80.7023 24 97.0566 40.3543 97.0566 60.5283Z" fill="white"/>
</g>
<defs>
<filter id="filter0_di_8394_58" x="0" y="0" width="121.057" height="121.057" filterUnits="userSpaceOnUse" color-interpolation-filters="sRGB">
<feFlood flood-opacity="0" result="BackgroundImageFix"/>
<feColorMatrix in="SourceAlpha" type="matrix" values="0 0 0 0 0 0 0 0 0 0 0 0 0 0 0 0 0 0 127 0" result="hardAlpha"/>
<feOffset/>
<feGaussianBlur stdDeviation="12"/>
<feColorMatrix type="matrix" values="0 0 0 0 0 0 0 0 0 0 0 0 0 0 0 0 0 0 0.08 0"/>
<feBlend mode="normal" in2="BackgroundImageFix" result="effect1_dropShadow_8394_58"/>
<feBlend mode="normal" in="SourceGraphic" in2="effect1_dropShadow_8394_58" result="shape"/>
<feColorMatrix in="SourceAlpha" type="matrix" values="0 0 0 0 0 0 0 0 0 0 0 0 0 0 0 0 0 0 127 0" result="hardAlpha"/>
<feOffset/>
<feGaussianBlur stdDeviation="4"/>
<feComposite in2="hardAlpha" operator="arithmetic" k2="-1" k3="1"/>
<feColorMatrix type="matrix" values="0 0 0 0 0 0 0 0 0 0 0 0 0 0 0 0 0 0 0.16 0"/>
<feBlend mode="normal" in2="shape" result="effect2_innerShadow_8394_58"/>
</filter>
</defs>
</svg>
