<svg width="65" height="72" viewBox="0 0 65 72" fill="none" xmlns="http://www.w3.org/2000/svg">
<path fill-rule="evenodd" clip-rule="evenodd" d="M50.1074 55.9156C55.2724 54.76 61.7731 48.5049 63.0409 43.4735C65.1562 33.7384 65.1562 23.8696 63.0409 14.1343C61.7731 9.10293 55.275 2.84782 50.1074 1.69218C38.3008 -0.56406 26.3273 -0.56406 14.5182 1.69218C9.35315 2.84782 2.85512 9.10293 1.58473 14.1343C-0.528242 23.8694 -0.528242 33.7381 1.58473 43.4733C2.85512 48.5046 9.35315 54.7597 14.5182 55.9153L14.5221 55.9161C14.7524 55.9615 14.9199 56.1617 14.9199 56.3973V70.6585C14.9199 71.129 15.2973 71.4419 15.6957 71.4518L16.9774 70.4861L29.3619 57.7164C29.4564 57.6189 29.5865 57.5663 29.7219 57.5699C36.5304 57.7594 43.3456 57.2072 50.1074 55.9156ZM43.5493 50.0561C43.2934 49.9781 43.0413 49.9083 42.7936 49.8397C42.273 49.6955 41.772 49.5568 41.2958 49.3583C34.0136 46.3232 27.3116 42.4077 22.0028 36.4055C18.9838 32.9923 16.621 29.1389 14.6235 25.0609C13.7743 23.3269 13.0447 21.5319 12.3165 19.7402L12.0645 19.1208C11.3226 17.3 12.4154 15.4191 13.566 14.0472C14.6457 12.7598 16.0351 11.7745 17.5397 11.0483C18.7141 10.4815 19.8726 10.8083 20.7303 11.8083C22.5845 13.9702 24.2876 16.2427 25.6668 18.7486C26.5149 20.29 26.2822 22.1741 24.7452 23.2231C24.445 23.428 24.1662 23.6615 23.8877 23.8948C23.8197 23.9518 23.7516 24.0088 23.6832 24.0654C23.378 24.3177 23.0908 24.5727 22.8816 24.9144C22.4992 25.5396 22.4809 26.277 22.7272 26.9568C24.6226 32.1894 27.8174 36.2582 33.0601 38.4497C33.1348 38.4809 33.2096 38.5126 33.2844 38.5443C34.0501 38.8689 34.8277 39.1985 35.7081 39.0954C36.7555 38.9725 37.3446 38.1824 37.9372 37.3875C38.2604 36.954 38.5847 36.519 38.9851 36.1901C40.0937 35.2795 41.5105 35.2674 42.7047 36.0266C43.8992 36.786 45.0571 37.6012 46.208 38.4251L46.441 38.5917C47.4921 39.3432 48.5343 40.0883 49.5048 40.9468C50.5068 41.8333 50.8519 42.9963 50.2876 44.1993C49.2546 46.4026 47.7516 48.2357 45.5833 49.4057C45.1645 49.6314 44.69 49.7527 44.211 49.8752C43.9898 49.9318 43.7675 49.9887 43.5493 50.0561ZM51.3591 24.608C49.6825 15.148 41.8591 8.79778 32.3337 8.52971C32.2803 8.52948 32.2268 8.52861 32.1733 8.52775C32.0424 8.52563 31.9113 8.5235 31.781 8.53076C31.1056 8.56719 30.5069 9.13452 30.6334 9.84703C30.7759 10.6498 31.5792 10.7312 32.2414 10.7983L32.3562 10.8101C32.691 10.8454 33.0269 10.8745 33.3629 10.9037C34.107 10.9683 34.8511 11.0328 35.5833 11.1641C42.6461 12.4295 48.3042 18.3267 49.2902 25.4547C49.4392 26.5317 49.5126 27.6197 49.586 28.7069C49.6046 28.9822 49.6233 29.2593 49.6432 29.5343C49.6927 30.2221 50.0363 30.8639 50.7998 30.8547C51.5391 30.8458 51.927 30.192 51.8735 29.5039C51.858 29.3037 51.8428 29.1034 51.8276 28.903L51.8273 28.8989C51.7186 27.4625 51.6096 26.0213 51.3591 24.608ZM46.8097 27.3801C46.8057 27.4102 46.8022 27.4508 46.7981 27.4987C46.7859 27.6405 46.7681 27.8474 46.716 28.0451C46.4633 29.0058 45.0134 29.1261 44.6795 28.1565C44.5806 27.8688 44.5658 27.5415 44.5652 27.2317C44.5618 25.205 44.1233 23.1804 43.106 21.4171C42.0602 19.6048 40.4624 18.0812 38.5884 17.1593C37.4552 16.602 36.2297 16.2555 34.9878 16.049C34.6498 15.9929 34.3096 15.9505 33.9693 15.9081C33.7631 15.8824 33.5567 15.8566 33.3509 15.8279C32.6899 15.7356 32.3369 15.3124 32.3682 14.6581C32.3974 14.0449 32.8435 13.6039 33.5087 13.6416C35.6947 13.7663 37.8061 14.2409 39.7495 15.2747C43.7015 17.3771 45.959 20.6957 46.6179 25.127C46.6286 25.1988 46.6416 25.2704 46.6546 25.342C46.6778 25.4704 46.7011 25.5987 46.7108 25.7281C46.737 26.0779 46.7564 26.4279 46.7788 26.8328C46.7883 27.004 46.7984 27.1851 46.8097 27.3801ZM39.5794 25.9854C39.6616 26.7194 40.0881 27.1625 40.885 27.1481C41.2479 27.1235 41.6199 26.8706 41.7365 26.3659C41.8024 26.0805 41.7752 25.766 41.7492 25.4666L41.7467 25.4372C41.37 21.0699 38.7306 19.1519 35.0376 18.8841C34.4467 18.8411 33.9206 19.2651 33.83 19.8084C33.7304 20.4053 34.0807 20.9205 34.7141 21.0764C34.9874 21.1437 35.2659 21.1692 35.5449 21.1948C35.8613 21.2238 36.1783 21.2528 36.489 21.3429C36.9492 21.4763 37.3885 21.6831 37.7761 21.9669C38.5973 22.5677 39.1161 23.4765 39.3556 24.4571C39.4602 24.8856 39.5082 25.3295 39.556 25.7712C39.5637 25.8426 39.5715 25.9141 39.5794 25.9854Z" fill="#8F68AD"/>
</svg>
