<svg width="33" height="33" viewBox="0 0 33 33" fill="none" xmlns="http://www.w3.org/2000/svg">
<path d="M16.475 32.8708C25.5436 32.8553 32.8829 25.4907 32.8678 16.4214C32.8527 7.35208 25.4888 0.0125163 16.4202 0.0279981C7.35157 0.0434798 0.0122619 7.40814 0.0273877 16.4774C0.0425136 25.5467 7.40635 32.8863 16.475 32.8708Z" fill="#FFCB08"/>
<path d="M25.2258 11.6007C23.2231 11.6007 21.599 13.2237 21.599 15.2297C21.599 15.2398 21.599 15.2398 21.599 15.2499C15.1226 17.135 8.76573 21.9233 5.61719 28.7983C7.30106 30.2903 9.28384 31.3891 11.426 32.0947C12.6217 24.8971 17.8925 19.4334 22.4758 17.5987C23.1633 18.4052 24.1597 18.8689 25.2158 18.8689C27.2186 18.8689 28.8327 17.2459 28.8327 15.2398C28.8426 13.2338 27.2285 11.6108 25.2258 11.6007Z" fill="white"/>
<path fill-rule="evenodd" clip-rule="evenodd" d="M13.807 4.68518C11.8043 4.68518 10.1901 6.30817 10.1901 8.31422C10.1901 8.39487 10.1901 8.47551 10.2001 8.55615C5.6965 10.3404 2.26898 13.2941 0.0371094 16.8727C0.136747 20.0582 1.10323 23.1429 2.91663 25.7538C3.08601 19.9171 5.99542 14.3122 10.9574 10.5521C11.6448 11.4291 12.691 11.9433 13.807 11.9433C15.8097 11.9433 17.4238 10.3203 17.4238 8.31422C17.4338 6.31825 15.8097 4.68518 13.807 4.68518Z" fill="white"/>
</svg>
