<svg width="20" height="20" viewBox="0 0 20 20" fill="none" xmlns="http://www.w3.org/2000/svg">
<path d="M5.52215 4.55149C5.23371 4.26281 4.76574 4.26281 4.47731 4.55149C3.40637 5.62242 2.88 7.1143 3.03297 8.64485C3.07113 9.02614 3.39234 9.31036 3.76746 9.31036C3.79211 9.31036 3.81695 9.30911 3.8416 9.30665C4.24777 9.26602 4.54406 8.90368 4.50344 8.49778C4.39457 7.41008 4.76602 6.35246 5.52215 5.59629C5.81082 5.30789 5.81082 4.83989 5.52215 4.55149Z" fill="#757575"/>
<path d="M8.44829 0C3.78989 0 0 3.78988 0 8.44829C0 13.1067 3.78989 16.8966 8.44829 16.8966C13.1067 16.8966 16.8966 13.1067 16.8966 8.44829C16.8966 3.78988 13.1067 0 8.44829 0ZM8.44829 15.4187C4.60469 15.4187 1.47785 12.2919 1.47785 8.44829C1.47785 4.60469 4.60469 1.47785 8.44829 1.47785C12.2917 1.47785 15.4187 4.60469 15.4187 8.44829C15.4187 12.2919 12.2919 15.4187 8.44829 15.4187Z" fill="#757575"/>
<path d="M19.7835 18.7387L14.414 13.3692C14.1254 13.0806 13.6579 13.0806 13.3692 13.3692C13.0805 13.6577 13.0805 14.1256 13.3692 14.4141L18.7387 19.7835C18.883 19.9279 19.0719 20 19.2611 20C19.4503 20 19.6392 19.9279 19.7835 19.7835C20.0722 19.4951 20.0722 19.0271 19.7835 18.7387Z" fill="#757575"/>
</svg>
