<svg width="34" height="33" viewBox="0 0 34 33" fill="none" xmlns="http://www.w3.org/2000/svg">
<path fill-rule="evenodd" clip-rule="evenodd" d="M17.3725 0.01241C18.6507 0.496399 19.1098 1.42715 19.085 2.76742C19.0354 5.24942 19.085 7.719 19.0602 10.201C19.0478 11.8267 17.6951 12.8691 16.2432 12.41C15.4117 12.1494 14.7664 11.4172 14.754 10.5361C14.7291 7.68177 14.7167 4.83989 14.754 1.98559C14.7664 0.943158 15.511 0.397119 16.3673 0C16.7023 0.01241 17.0374 0.01241 17.3725 0.01241Z" fill="#2DA0FC"/>
<path fill-rule="evenodd" clip-rule="evenodd" d="M0 12.547C0.409529 11.7031 0.918338 10.9709 1.97318 10.9213C2.32066 10.9089 2.68055 10.9585 3.00321 11.0578C5.43557 11.8396 7.86792 12.6339 10.2879 13.4529C11.7274 13.9369 12.3355 15.4137 11.6405 16.6795C11.1442 17.5731 10.1017 18.0074 9.0841 17.6848C6.55246 16.8657 4.03324 16.0094 1.50161 15.1903C0.732188 14.9421 0.335069 14.3216 0 13.6639C0 13.2916 0 12.9193 0 12.547Z" fill="#2DA0FC"/>
<path fill-rule="evenodd" clip-rule="evenodd" d="M26.0358 32.8989C25.254 32.8616 24.6583 32.5638 24.2364 31.9681C22.6852 29.8088 21.1339 27.6494 19.5951 25.4653C18.8381 24.398 19.0615 23.0577 20.0667 22.338C21.0595 21.6182 22.3749 21.8664 23.1567 22.9585C24.6707 25.0682 26.1848 27.1903 27.6864 29.3C28.2448 30.0694 28.3441 30.9009 27.8849 31.7447C27.4878 32.5017 26.8301 32.8616 26.0358 32.8989Z" fill="#2DA0FC"/>
<path fill-rule="evenodd" clip-rule="evenodd" d="M14.7424 24.1621C14.5687 24.5965 14.457 25.0681 14.2088 25.4404C12.6948 27.6121 11.1559 29.759 9.61708 31.8936C8.84766 32.9608 7.56944 33.1842 6.57664 32.4768C5.57143 31.7819 5.33564 30.4168 6.09265 29.3495C7.61908 27.1654 9.17032 25.006 10.734 22.8467C11.3421 22.0028 12.2852 21.7174 13.1912 22.0276C14.0474 22.3503 14.6431 23.1817 14.7424 24.1621Z" fill="#2DA0FC"/>
<path fill-rule="evenodd" clip-rule="evenodd" d="M33.7793 13.1299C33.7669 14.0483 33.2705 14.8425 32.4018 15.1403C29.8329 16.0214 27.2516 16.8777 24.6579 17.7092C23.5162 18.0691 22.3497 17.4114 21.9898 16.2945C21.6299 15.1652 22.1511 13.949 23.268 13.5519C25.8369 12.6583 28.4181 11.8021 31.0118 10.983C32.4514 10.5362 33.7917 11.6283 33.7793 13.1299Z" fill="#2DA0FC"/>
</svg>
