<svg width="16" height="16" viewBox="0 0 16 16" fill="none" xmlns="http://www.w3.org/2000/svg">
<g clip-path="url(#clip0_8404_55)">
<path d="M8 0C5.87875 0 3.8425 0.843375 2.34375 2.34313C0.843465 3.84348 0.000429311 5.87823 0 8C0 10.1209 0.84375 12.1571 2.34375 13.6569C3.8425 15.1566 5.87875 16 8 16C10.1212 16 12.1575 15.1566 13.6562 13.6569C15.1562 12.1571 16 10.1209 16 8C16 5.87913 15.1562 3.84288 13.6562 2.34313C12.1575 0.843375 10.1212 0 8 0Z" fill="#A4A4A4"/>
<path d="M2.68735 8.44399C5.37221 7.31511 7.16212 6.57085 8.05707 6.21122C10.6153 5.18443 11.1462 5.00609 11.493 5.00005C11.5693 4.99887 11.739 5.01707 11.8498 5.10352C11.9419 5.17644 11.9678 5.27505 11.9808 5.34429C11.9923 5.41345 12.0081 5.57109 11.9952 5.69414C11.857 7.09969 11.257 10.5105 10.952 12.0848C10.8239 12.7509 10.5693 12.9742 10.3232 12.996C9.78798 13.0435 9.38223 12.6549 8.86425 12.3273C8.05419 11.8144 7.59664 11.4952 6.8096 10.9948C5.90026 10.4165 6.49018 10.0986 7.00816 9.57912C7.14341 9.44314 9.50022 7.37441 9.54482 7.18677C9.55058 7.1633 9.55633 7.0758 9.50166 7.02969C9.44842 6.98344 9.36928 6.99927 9.31173 7.01177C9.22972 7.02955 7.93621 7.85566 5.42688 9.48995C5.05998 9.73356 4.72761 9.85231 4.42833 9.84606C4.10028 9.83925 3.46719 9.66662 2.9967 9.51912C2.42116 9.33815 1.96218 9.24245 2.00246 8.93509C2.02261 8.77509 2.25138 8.61135 2.68735 8.44399Z" fill="white"/>
</g>
<defs>
<clipPath id="clip0_8404_55">
<rect width="16" height="16" fill="white"/>
</clipPath>
</defs>
</svg>
