<svg width="55" height="92" viewBox="0 0 55 92" fill="none" xmlns="http://www.w3.org/2000/svg">
<path fill-rule="evenodd" clip-rule="evenodd" d="M25.51 2.71C23.92 5.137 23.808 7.014 24.435 20.643C24.902 30.79 24.76 37.533 24.009 40.866C22.795 46.258 18.134 57.366 17.086 57.366C16.733 57.366 15.419 56.648 14.166 55.769C11.334 53.786 11.634 50.246 14.75 48.879C17.415 47.71 17.478 46.515 15.583 33.144C14.826 27.797 13.233 21.413 12.044 18.958C9.951 14.633 3.025 7.366 0.997 7.366C0.354 7.366 0 19.082 0 40.324V73.282L7.596 73.574L15.192 73.866L16.541 77.799C17.283 79.963 20.064 83.906 22.72 86.562L27.55 91.392L32.342 86.526C34.978 83.85 37.736 79.907 38.471 77.763L39.808 73.866L47.404 73.574L55 73.282V40.324C55 19.082 54.646 7.366 54.003 7.366C51.975 7.366 45.049 14.633 42.956 18.958C41.767 21.413 40.174 27.797 39.417 33.144C37.522 46.515 37.585 47.71 40.25 48.879C43.366 50.246 43.666 53.786 40.834 55.769C39.581 56.648 38.267 57.366 37.914 57.366C36.864 57.366 32.203 46.251 30.995 40.866C30.251 37.552 30.104 30.64 30.559 20.366C31.201 5.841 31.12 4.713 29.265 2.433L27.286 0L25.51 2.71ZM7.6 21.56C8.509 23.317 9.86 29.054 10.602 34.31C11.715 42.193 11.722 44.041 10.639 44.866C9.917 45.416 8.787 46.879 8.128 48.116C5.602 52.859 5 50.213 5 34.366C5 25.566 5.213 18.366 5.474 18.366C5.735 18.366 6.692 19.803 7.6 21.56ZM49.444 50.255C49.11 50.589 48.219 49.964 47.464 48.864C46.709 47.765 45.416 46.172 44.591 45.325C43.278 43.976 43.256 42.594 44.419 34.269C45.15 29.036 46.592 23.204 47.624 21.31L49.5 17.866L49.776 33.757C49.928 42.496 49.779 49.921 49.444 50.255ZM29.737 59.514C27.849 60.983 27.373 61.001 25.362 59.683L23.104 58.204L25.266 53.755L27.428 49.305L29.642 53.585L31.856 57.866L29.737 59.514ZM8.398 57.85C9.293 59.216 11.145 60.615 12.513 60.959C14.551 61.47 15 62.195 15 64.974V68.366H10H5V61.866C5 54.888 5.821 53.918 8.398 57.85ZM50 61.866V68.366H45H40V64.974C40 62.195 40.449 61.47 42.487 60.959C43.855 60.615 45.707 59.216 46.602 57.85C49.179 53.918 50 54.888 50 61.866ZM23.171 65.021C25.679 67.291 25.463 68.366 22.5 68.366C20.5 68.366 20 67.866 20 65.866C20 62.937 20.671 62.758 23.171 65.021ZM35 65.866C35 67.866 34.5 68.366 32.5 68.366C29.571 68.366 29.392 67.695 31.655 65.195C33.925 62.687 35 62.903 35 65.866ZM25 77.366C25 82.14 24.55 82.331 22.526 78.416C20.496 74.491 20.602 73.366 23 73.366C24.667 73.366 25 74.033 25 77.366ZM34 74.416C34 75.706 31.129 81.366 30.474 81.366C30.213 81.366 30 79.566 30 77.366C30 74.033 30.333 73.366 32 73.366C33.1 73.366 34 73.838 34 74.416Z" fill="#B5B5B5"/>
</svg>
