<svg width="127" height="130" viewBox="0 0 127 130" fill="none" xmlns="http://www.w3.org/2000/svg">
<path d="M5.04948 0H0V5.16048H5.04948V0Z" fill="black"/>
<path d="M10.099 0H5.04948V5.16048H10.099V0Z" fill="black"/>
<path d="M15.1484 0H10.099V5.16048H15.1484V0Z" fill="black"/>
<path d="M20.1979 0H15.1484V5.16048H20.1979V0Z" fill="black"/>
<path d="M25.2474 0H20.1979V5.16048H25.2474V0Z" fill="black"/>
<path d="M30.2969 0H25.2474V5.16048H30.2969V0Z" fill="black"/>
<path d="M35.3464 0H30.2969V5.16048H35.3464V0Z" fill="black"/>
<path d="M55.5443 0H50.4948V5.16048H55.5443V0Z" fill="black"/>
<path d="M70.6927 0H65.6432V5.16048H70.6927V0Z" fill="black"/>
<path d="M75.7422 0H70.6927V5.16048H75.7422V0Z" fill="black"/>
<path d="M80.7917 0H75.7422V5.16048H80.7917V0Z" fill="black"/>
<path d="M85.8411 0H80.7917V5.16048H85.8411V0Z" fill="black"/>
<path d="M95.9401 0H90.8906V5.16048H95.9401V0Z" fill="black"/>
<path d="M100.99 0H95.9401V5.16048H100.99V0Z" fill="black"/>
<path d="M106.039 0H100.99V5.16048H106.039V0Z" fill="black"/>
<path d="M111.089 0H106.039V5.16048H111.089V0Z" fill="black"/>
<path d="M116.138 0H111.089V5.16048H116.138V0Z" fill="black"/>
<path d="M121.188 0H116.138V5.16048H121.188V0Z" fill="black"/>
<path d="M126.237 0H121.188V5.16048H126.237V0Z" fill="black"/>
<path d="M5.04948 5.16048H0V10.321H5.04948V5.16048Z" fill="black"/>
<path d="M35.3464 5.16048H30.2969V10.321H35.3464V5.16048Z" fill="black"/>
<path d="M45.4453 5.16048H40.3958V10.321H45.4453V5.16048Z" fill="black"/>
<path d="M50.4948 5.16048H45.4453V10.321H50.4948V5.16048Z" fill="black"/>
<path d="M55.5443 5.16048H50.4948V10.321H55.5443V5.16048Z" fill="black"/>
<path d="M70.6927 5.16048H65.6432V10.321H70.6927V5.16048Z" fill="black"/>
<path d="M75.7422 5.16048H70.6927V10.321H75.7422V5.16048Z" fill="black"/>
<path d="M80.7917 5.16048H75.7422V10.321H80.7917V5.16048Z" fill="black"/>
<path d="M95.9401 5.16048H90.8906V10.321H95.9401V5.16048Z" fill="black"/>
<path d="M126.237 5.16048H121.188V10.321H126.237V5.16048Z" fill="black"/>
<path d="M5.04948 10.321H0V15.4814H5.04948V10.321Z" fill="black"/>
<path d="M15.1484 10.321H10.099V15.4814H15.1484V10.321Z" fill="black"/>
<path d="M20.1979 10.321H15.1484V15.4814H20.1979V10.321Z" fill="black"/>
<path d="M25.2474 10.321H20.1979V15.4814H25.2474V10.321Z" fill="black"/>
<path d="M35.3464 10.321H30.2969V15.4814H35.3464V10.321Z" fill="black"/>
<path d="M45.4453 10.321H40.3958V15.4814H45.4453V10.321Z" fill="black"/>
<path d="M75.7422 10.321H70.6927L70.6927 15.4814H75.7422V10.321Z" fill="black"/>
<path d="M80.7917 10.321H75.7422V15.4814H80.7917V10.321Z" fill="black"/>
<path d="M95.9401 10.321H90.8906V15.4814H95.9401V10.321Z" fill="black"/>
<path d="M106.039 10.321H100.99V15.4814H106.039V10.321Z" fill="black"/>
<path d="M111.089 10.321H106.039V15.4814H111.089V10.321Z" fill="black"/>
<path d="M116.138 10.321H111.089V15.4814H116.138V10.321Z" fill="black"/>
<path d="M126.237 10.321H121.188V15.4814H126.237V10.321Z" fill="black"/>
<path d="M5.04948 15.4814H0V20.6419H5.04948V15.4814Z" fill="black"/>
<path d="M15.1484 15.4814H10.099V20.6419H15.1484V15.4814Z" fill="black"/>
<path d="M20.1979 15.4814H15.1484V20.6419H20.1979V15.4814Z" fill="black"/>
<path d="M25.2474 15.4814H20.1979V20.6419H25.2474V15.4814Z" fill="black"/>
<path d="M35.3464 15.4814H30.2969V20.6419H35.3464V15.4814Z" fill="black"/>
<path d="M50.4948 15.4814H45.4453V20.6419H50.4948V15.4814Z" fill="black"/>
<path d="M65.6432 15.4814H60.5938V20.6419H65.6432V15.4814Z" fill="black"/>
<path d="M75.7422 15.4814H70.6927V20.6419H75.7422V15.4814Z" fill="black"/>
<path d="M95.9401 15.4814H90.8906V20.6419H95.9401V15.4814Z" fill="black"/>
<path d="M106.039 15.4814H100.99V20.6419H106.039V15.4814Z" fill="black"/>
<path d="M111.089 15.4814H106.039V20.6419H111.089V15.4814Z" fill="black"/>
<path d="M116.138 15.4814H111.089V20.6419H116.138V15.4814Z" fill="black"/>
<path d="M126.237 15.4814H121.188V20.6419H126.237V15.4814Z" fill="black"/>
<path d="M5.04948 20.6419H0V25.8024H5.04948V20.6419Z" fill="black"/>
<path d="M15.1484 20.6419H10.099V25.8024H15.1484V20.6419Z" fill="black"/>
<path d="M20.1979 20.6419H15.1484V25.8024H20.1979V20.6419Z" fill="black"/>
<path d="M25.2474 20.6419H20.1979V25.8024H25.2474V20.6419Z" fill="black"/>
<path d="M35.3464 20.6419H30.2969V25.8024H35.3464V20.6419Z" fill="black"/>
<path d="M45.4453 20.6419H40.3958V25.8024H45.4453V20.6419Z" fill="black"/>
<path d="M50.4948 20.6419H45.4453V25.8024H50.4948V20.6419Z" fill="black"/>
<path d="M55.5443 20.6419H50.4948V25.8024H55.5443V20.6419Z" fill="black"/>
<path d="M65.6432 20.6419H60.5938V25.8024H65.6432V20.6419Z" fill="black"/>
<path d="M80.7917 20.6419H75.7422V25.8024H80.7917V20.6419Z" fill="black"/>
<path d="M85.8411 20.6419H80.7917V25.8024H85.8411V20.6419Z" fill="black"/>
<path d="M95.9401 20.6419H90.8906V25.8024H95.9401V20.6419Z" fill="black"/>
<path d="M106.039 20.6419H100.99V25.8024H106.039V20.6419Z" fill="black"/>
<path d="M111.089 20.6419H106.039V25.8024H111.089V20.6419Z" fill="black"/>
<path d="M116.138 20.6419H111.089V25.8024H116.138V20.6419Z" fill="black"/>
<path d="M126.237 20.6419H121.188V25.8024H126.237V20.6419Z" fill="black"/>
<path d="M5.04948 25.8024H0V30.9629H5.04948V25.8024Z" fill="black"/>
<path d="M35.3464 25.8024H30.2969V30.9629H35.3464V25.8024Z" fill="black"/>
<path d="M45.4453 25.8024H40.3958V30.9629H45.4453V25.8024Z" fill="black"/>
<path d="M55.5443 25.8024H50.4948V30.9629H55.5443V25.8024Z" fill="black"/>
<path d="M65.6432 25.8024H60.5938V30.9629H65.6432V25.8024Z" fill="black"/>
<path d="M70.6927 25.8024H65.6432V30.9629H70.6927V25.8024Z" fill="black"/>
<path d="M75.7422 25.8024H70.6927V30.9629H75.7422V25.8024Z" fill="black"/>
<path d="M80.7917 25.8024H75.7422V30.9629H80.7917V25.8024Z" fill="black"/>
<path d="M95.9401 25.8024H90.8906V30.9629H95.9401V25.8024Z" fill="black"/>
<path d="M126.237 25.8024H121.188V30.9629H126.237V25.8024Z" fill="black"/>
<path d="M5.04948 30.9629H0V36.1233H5.04948V30.9629Z" fill="black"/>
<path d="M10.099 30.9629H5.04948V36.1233H10.099V30.9629Z" fill="black"/>
<path d="M15.1484 30.9629H10.099V36.1233H15.1484V30.9629Z" fill="black"/>
<path d="M20.1979 30.9629H15.1484V36.1233H20.1979V30.9629Z" fill="black"/>
<path d="M25.2474 30.9629H20.1979V36.1233H25.2474V30.9629Z" fill="black"/>
<path d="M30.2969 30.9629H25.2474V36.1233H30.2969V30.9629Z" fill="black"/>
<path d="M35.3464 30.9629H30.2969V36.1233H35.3464V30.9629Z" fill="black"/>
<path d="M45.4453 30.9629H40.3958V36.1233H45.4453V30.9629Z" fill="black"/>
<path d="M55.5443 30.9629H50.4948V36.1233H55.5443V30.9629Z" fill="black"/>
<path d="M65.6432 30.9629H60.5938V36.1233H65.6432V30.9629Z" fill="black"/>
<path d="M75.7422 30.9629H70.6927L70.6927 36.1233H75.7422V30.9629Z" fill="black"/>
<path d="M85.8411 30.9629H80.7917V36.1233H85.8411V30.9629Z" fill="black"/>
<path d="M95.9401 30.9629H90.8906V36.1233H95.9401V30.9629Z" fill="black"/>
<path d="M100.99 30.9629H95.9401V36.1233H100.99V30.9629Z" fill="black"/>
<path d="M106.039 30.9629H100.99V36.1233H106.039V30.9629Z" fill="black"/>
<path d="M111.089 30.9629H106.039V36.1233H111.089V30.9629Z" fill="black"/>
<path d="M116.138 30.9629H111.089V36.1233H116.138V30.9629Z" fill="black"/>
<path d="M121.188 30.9629H116.138V36.1233H121.188V30.9629Z" fill="black"/>
<path d="M126.237 30.9629H121.188V36.1233H126.237V30.9629Z" fill="black"/>
<path d="M45.4453 36.1233H40.3958V41.2838H45.4453V36.1233Z" fill="black"/>
<path d="M55.5443 36.1233H50.4948V41.2838H55.5443V36.1233Z" fill="black"/>
<path d="M60.5938 36.1233H55.5443V41.2838H60.5938V36.1233Z" fill="black"/>
<path d="M80.7917 36.1233H75.7422V41.2838H80.7917V36.1233Z" fill="black"/>
<path d="M5.04948 41.2838H0V46.4443H5.04948V41.2838Z" fill="black"/>
<path d="M10.099 41.2838H5.04948V46.4443H10.099V41.2838Z" fill="black"/>
<path d="M20.1979 41.2838H15.1484V46.4443H20.1979V41.2838Z" fill="black"/>
<path d="M35.3464 41.2838H30.2969V46.4443H35.3464V41.2838Z" fill="black"/>
<path d="M40.3958 41.2838H35.3464V46.4443H40.3958V41.2838Z" fill="black"/>
<path d="M60.5938 41.2838H55.5443V46.4443H60.5938V41.2838Z" fill="black"/>
<path d="M65.6432 41.2838H60.5938V46.4443H65.6432V41.2838Z" fill="black"/>
<path d="M70.6927 41.2838H65.6432V46.4443H70.6927V41.2838Z" fill="black"/>
<path d="M75.7422 41.2838H70.6927V46.4443H75.7422V41.2838Z" fill="black"/>
<path d="M95.9401 41.2838H90.8906V46.4443H95.9401V41.2838Z" fill="black"/>
<path d="M100.99 41.2838H95.9401V46.4443H100.99V41.2838Z" fill="black"/>
<path d="M106.039 41.2838H100.99V46.4443H106.039V41.2838Z" fill="black"/>
<path d="M116.138 41.2838H111.089V46.4443H116.138V41.2838Z" fill="black"/>
<path d="M121.188 41.2838H116.138V46.4443H121.188V41.2838Z" fill="black"/>
<path d="M10.099 46.4443H5.04948V51.6048H10.099V46.4443Z" fill="black"/>
<path d="M15.1484 46.4443H10.099V51.6048H15.1484V46.4443Z" fill="black"/>
<path d="M20.1979 46.4443H15.1484V51.6048H20.1979V46.4443Z" fill="black"/>
<path d="M30.2969 46.4443H25.2474V51.6048H30.2969V46.4443Z" fill="black"/>
<path d="M45.4453 46.4443H40.3958V51.6048H45.4453V46.4443Z" fill="black"/>
<path d="M50.4948 46.4443H45.4453V51.6048H50.4948V46.4443Z" fill="black"/>
<path d="M60.5938 46.4443H55.5443V51.6048H60.5938V46.4443Z" fill="black"/>
<path d="M65.6432 46.4443H60.5938V51.6048H65.6432V46.4443Z" fill="black"/>
<path d="M70.6927 46.4443H65.6432V51.6048H70.6927V46.4443Z" fill="black"/>
<path d="M85.8411 46.4443H80.7917V51.6048H85.8411V46.4443Z" fill="black"/>
<path d="M90.8906 46.4443H85.8411V51.6048H90.8906V46.4443Z" fill="black"/>
<path d="M95.9401 46.4443H90.8906V51.6048H95.9401V46.4443Z" fill="black"/>
<path d="M126.237 46.4443H121.188V51.6048H126.237V46.4443Z" fill="black"/>
<path d="M5.04948 51.6048H0V56.7652H5.04948V51.6048Z" fill="black"/>
<path d="M10.099 51.6048H5.04948V56.7652H10.099V51.6048Z" fill="black"/>
<path d="M15.1484 51.6048H10.099V56.7652H15.1484V51.6048Z" fill="black"/>
<path d="M25.2474 51.6048H20.1979V56.7652H25.2474V51.6048Z" fill="black"/>
<path d="M30.2969 51.6048H25.2474V56.7652H30.2969V51.6048Z" fill="black"/>
<path d="M35.3464 51.6048H30.2969V56.7652H35.3464V51.6048Z" fill="black"/>
<path d="M45.4453 51.6048H40.3958V56.7652H45.4453V51.6048Z" fill="black"/>
<path d="M60.5938 51.6048H55.5443V56.7652H60.5938V51.6048Z" fill="black"/>
<path d="M65.6432 51.6048H60.5938V56.7652H65.6432V51.6048Z" fill="black"/>
<path d="M75.7422 51.6048H70.6927L70.6927 56.7652H75.7422V51.6048Z" fill="black"/>
<path d="M90.8906 51.6048H85.8411V56.7652H90.8906V51.6048Z" fill="black"/>
<path d="M95.9401 51.6048H90.8906V56.7652H95.9401V51.6048Z" fill="black"/>
<path d="M100.99 51.6048H95.9401V56.7652H100.99V51.6048Z" fill="black"/>
<path d="M121.188 51.6048H116.138V56.7652H121.188V51.6048Z" fill="black"/>
<path d="M126.237 51.6048H121.188V56.7652H126.237V51.6048Z" fill="black"/>
<path d="M15.1484 56.7652H10.099L10.099 61.9257H15.1484V56.7652Z" fill="black"/>
<path d="M50.4948 56.7652H45.4453V61.9257H50.4948V56.7652Z" fill="black"/>
<path d="M55.5443 56.7652H50.4948V61.9257H55.5443V56.7652Z" fill="black"/>
<path d="M60.5938 56.7652H55.5443V61.9257H60.5938V56.7652Z" fill="black"/>
<path d="M65.6432 56.7652H60.5938V61.9257H65.6432V56.7652Z" fill="black"/>
<path d="M70.6927 56.7652H65.6432V61.9257H70.6927L70.6927 56.7652Z" fill="black"/>
<path d="M75.7422 56.7652H70.6927L70.6927 61.9257H75.7422V56.7652Z" fill="black"/>
<path d="M85.8411 56.7652H80.7917V61.9257H85.8411V56.7652Z" fill="black"/>
<path d="M90.8906 56.7652H85.8411V61.9257H90.8906V56.7652Z" fill="black"/>
<path d="M15.1484 61.9257H10.099V67.0862H15.1484V61.9257Z" fill="black"/>
<path d="M20.1979 61.9257H15.1484V67.0862H20.1979V61.9257Z" fill="black"/>
<path d="M30.2969 61.9257H25.2474V67.0862H30.2969V61.9257Z" fill="black"/>
<path d="M35.3464 61.9257H30.2969V67.0862H35.3464V61.9257Z" fill="black"/>
<path d="M40.3958 61.9257H35.3464V67.0862H40.3958V61.9257Z" fill="black"/>
<path d="M45.4453 61.9257H40.3958V67.0862H45.4453V61.9257Z" fill="black"/>
<path d="M55.5443 61.9257H50.4948V67.0862H55.5443V61.9257Z" fill="black"/>
<path d="M60.5938 61.9257H55.5443V67.0862H60.5938V61.9257Z" fill="black"/>
<path d="M70.6927 61.9257H65.6432V67.0862H70.6927V61.9257Z" fill="black"/>
<path d="M80.7917 61.9257H75.7422V67.0862H80.7917V61.9257Z" fill="black"/>
<path d="M85.8411 61.9257H80.7917V67.0862H85.8411V61.9257Z" fill="black"/>
<path d="M90.8906 61.9257H85.8411V67.0862H90.8906V61.9257Z" fill="black"/>
<path d="M95.9401 61.9257H90.8906V67.0862H95.9401V61.9257Z" fill="black"/>
<path d="M111.089 61.9257H106.039V67.0862H111.089V61.9257Z" fill="black"/>
<path d="M121.188 61.9257H116.138V67.0862H121.188V61.9257Z" fill="black"/>
<path d="M126.237 61.9257H121.188V67.0862H126.237V61.9257Z" fill="black"/>
<path d="M15.1484 67.0862H10.099V72.2467H15.1484V67.0862Z" fill="black"/>
<path d="M20.1979 67.0862H15.1484V72.2467H20.1979V67.0862Z" fill="black"/>
<path d="M25.2474 67.0862H20.1979V72.2467H25.2474V67.0862Z" fill="black"/>
<path d="M30.2969 67.0862H25.2474V72.2467H30.2969V67.0862Z" fill="black"/>
<path d="M40.3958 67.0862H35.3464V72.2467H40.3958V67.0862Z" fill="black"/>
<path d="M50.4948 67.0862H45.4453V72.2467H50.4948V67.0862Z" fill="black"/>
<path d="M60.5938 67.0862H55.5443V72.2467H60.5938V67.0862Z" fill="black"/>
<path d="M70.6927 67.0862H65.6432V72.2467H70.6927V67.0862Z" fill="black"/>
<path d="M85.8411 67.0862H80.7917V72.2467H85.8411V67.0862Z" fill="black"/>
<path d="M90.8906 67.0862H85.8411V72.2467H90.8906V67.0862Z" fill="black"/>
<path d="M95.9401 67.0862H90.8906V72.2467H95.9401V67.0862Z" fill="black"/>
<path d="M100.99 67.0862H95.9401V72.2467H100.99V67.0862Z" fill="black"/>
<path d="M111.089 67.0862H106.039V72.2467H111.089V67.0862Z" fill="black"/>
<path d="M116.138 67.0862H111.089V72.2467H116.138V67.0862Z" fill="black"/>
<path d="M126.237 67.0862H121.188V72.2467H126.237V67.0862Z" fill="black"/>
<path d="M5.04948 72.2467H0V77.4072H5.04948V72.2467Z" fill="black"/>
<path d="M20.1979 72.2467H15.1484V77.4072H20.1979V72.2467Z" fill="black"/>
<path d="M25.2474 72.2467H20.1979V77.4072H25.2474V72.2467Z" fill="black"/>
<path d="M30.2969 72.2467H25.2474V77.4072H30.2969V72.2467Z" fill="black"/>
<path d="M35.3464 72.2467H30.2969V77.4072H35.3464V72.2467Z" fill="black"/>
<path d="M45.4453 72.2467H40.3958V77.4072H45.4453V72.2467Z" fill="black"/>
<path d="M60.5938 72.2467H55.5443V77.4072H60.5938V72.2467Z" fill="black"/>
<path d="M70.6927 72.2467H65.6432V77.4072H70.6927V72.2467Z" fill="black"/>
<path d="M75.7422 72.2467L70.6927 72.2467V77.4072H75.7422V72.2467Z" fill="black"/>
<path d="M100.99 72.2467H95.9401V77.4072H100.99V72.2467Z" fill="black"/>
<path d="M106.039 72.2467H100.99V77.4072H106.039L106.039 72.2467Z" fill="black"/>
<path d="M116.138 72.2467H111.089V77.4072H116.138V72.2467Z" fill="black"/>
<path d="M126.237 72.2467H121.188V77.4072H126.237V72.2467Z" fill="black"/>
<path d="M10.099 77.4072H5.04948V82.5676H10.099V77.4072Z" fill="black"/>
<path d="M15.1484 77.4072H10.099V82.5676H15.1484V77.4072Z" fill="black"/>
<path d="M20.1979 77.4072H15.1484V82.5676H20.1979V77.4072Z" fill="black"/>
<path d="M25.2474 77.4072H20.1979V82.5676H25.2474V77.4072Z" fill="black"/>
<path d="M50.4948 77.4072H45.4453V82.5676H50.4948V77.4072Z" fill="black"/>
<path d="M55.5443 77.4072H50.4948V82.5676H55.5443V77.4072Z" fill="black"/>
<path d="M60.5938 77.4072H55.5443V82.5676H60.5938V77.4072Z" fill="black"/>
<path d="M70.6927 77.4072H65.6432V82.5676H70.6927V77.4072Z" fill="black"/>
<path d="M90.8906 77.4072H85.8411V82.5676H90.8906V77.4072Z" fill="black"/>
<path d="M106.039 77.4072H100.99V82.5676H106.039V77.4072Z" fill="black"/>
<path d="M111.089 77.4072H106.039V82.5676H111.089V77.4072Z" fill="black"/>
<path d="M121.188 77.4072H116.138V82.5676H121.188V77.4072Z" fill="black"/>
<path d="M5.04948 82.5676L0 82.5676V87.7281H5.04948V82.5676Z" fill="black"/>
<path d="M10.099 82.5676H5.04948V87.7281H10.099V82.5676Z" fill="black"/>
<path d="M25.2474 82.5676H20.1979V87.7281H25.2474V82.5676Z" fill="black"/>
<path d="M35.3464 82.5676H30.2969V87.7281H35.3464V82.5676Z" fill="black"/>
<path d="M40.3958 82.5676H35.3464V87.7281H40.3958V82.5676Z" fill="black"/>
<path d="M50.4948 82.5676H45.4453V87.7281H50.4948V82.5676Z" fill="black"/>
<path d="M55.5443 82.5676H50.4948V87.7281H55.5443V82.5676Z" fill="black"/>
<path d="M65.6432 82.5676H60.5938V87.7281H65.6432V82.5676Z" fill="black"/>
<path d="M80.7917 82.5676H75.7422V87.7281H80.7917V82.5676Z" fill="black"/>
<path d="M85.8411 82.5676L80.7917 82.5676V87.7281H85.8411V82.5676Z" fill="black"/>
<path d="M90.8906 82.5676H85.8411V87.7281H90.8906V82.5676Z" fill="black"/>
<path d="M95.9401 82.5676L90.8906 82.5676V87.7281H95.9401V82.5676Z" fill="black"/>
<path d="M100.99 82.5676L95.9401 82.5676V87.7281H100.99V82.5676Z" fill="black"/>
<path d="M106.039 82.5676H100.99V87.7281H106.039V82.5676Z" fill="black"/>
<path d="M111.089 82.5676H106.039V87.7281H111.089V82.5676Z" fill="black"/>
<path d="M116.138 82.5676H111.089V87.7281H116.138V82.5676Z" fill="black"/>
<path d="M45.4453 87.7281H40.3958V92.8886H45.4453V87.7281Z" fill="black"/>
<path d="M55.5443 87.7281H50.4948V92.8886H55.5443V87.7281Z" fill="black"/>
<path d="M65.6432 87.7281H60.5938V92.8886H65.6432V87.7281Z" fill="black"/>
<path d="M75.7422 87.7281H70.6927V92.8886H75.7422V87.7281Z" fill="black"/>
<path d="M80.7917 87.7281H75.7422V92.8886H80.7917V87.7281Z" fill="black"/>
<path d="M85.8411 87.7281H80.7917V92.8886H85.8411V87.7281Z" fill="black"/>
<path d="M106.039 87.7281H100.99V92.8886H106.039V87.7281Z" fill="black"/>
<path d="M111.089 87.7281H106.039V92.8886H111.089V87.7281Z" fill="black"/>
<path d="M116.138 87.7281H111.089V92.8886H116.138V87.7281Z" fill="black"/>
<path d="M126.237 87.7281H121.188V92.8886H126.237V87.7281Z" fill="black"/>
<path d="M5.04948 92.8886H0V98.0491H5.04948V92.8886Z" fill="black"/>
<path d="M10.099 92.8886H5.04948V98.0491H10.099V92.8886Z" fill="black"/>
<path d="M15.1484 92.8886H10.099V98.0491H15.1484V92.8886Z" fill="black"/>
<path d="M20.1979 92.8886H15.1484V98.0491H20.1979V92.8886Z" fill="black"/>
<path d="M25.2474 92.8886H20.1979V98.0491H25.2474V92.8886Z" fill="black"/>
<path d="M30.2969 92.8886H25.2474V98.0491H30.2969V92.8886Z" fill="black"/>
<path d="M35.3464 92.8886H30.2969V98.0491H35.3464V92.8886Z" fill="black"/>
<path d="M45.4453 92.8886H40.3958V98.0491H45.4453V92.8886Z" fill="black"/>
<path d="M50.4948 92.8886H45.4453V98.0491H50.4948V92.8886Z" fill="black"/>
<path d="M55.5443 92.8886H50.4948V98.0491H55.5443V92.8886Z" fill="black"/>
<path d="M60.5938 92.8886H55.5443V98.0491H60.5938V92.8886Z" fill="black"/>
<path d="M65.6432 92.8886H60.5938V98.0491H65.6432V92.8886Z" fill="black"/>
<path d="M70.6927 92.8886H65.6432V98.0491H70.6927L70.6927 92.8886Z" fill="black"/>
<path d="M75.7422 92.8886H70.6927L70.6927 98.0491H75.7422V92.8886Z" fill="black"/>
<path d="M80.7917 92.8886H75.7422V98.0491H80.7917V92.8886Z" fill="black"/>
<path d="M85.8411 92.8886H80.7917V98.0491H85.8411V92.8886Z" fill="black"/>
<path d="M95.9401 92.8886H90.8906V98.0491H95.9401V92.8886Z" fill="black"/>
<path d="M106.039 92.8886H100.99V98.0491H106.039V92.8886Z" fill="black"/>
<path d="M121.188 92.8886H116.138V98.0491H121.188V92.8886Z" fill="black"/>
<path d="M126.237 92.8886H121.188V98.0491H126.237V92.8886Z" fill="black"/>
<path d="M5.04948 98.0491H0V103.21H5.04948V98.0491Z" fill="black"/>
<path d="M35.3464 98.0491H30.2969V103.21H35.3464V98.0491Z" fill="black"/>
<path d="M65.6432 98.0491H60.5938V103.21H65.6432V98.0491Z" fill="black"/>
<path d="M75.7422 98.0491H70.6927L70.6927 103.21H75.7422V98.0491Z" fill="black"/>
<path d="M85.8411 98.0491H80.7917V103.21H85.8411V98.0491Z" fill="black"/>
<path d="M106.039 98.0491H100.99V103.21H106.039V98.0491Z" fill="black"/>
<path d="M111.089 98.0491L106.039 98.0491V103.21H111.089V98.0491Z" fill="black"/>
<path d="M116.138 98.0491L111.089 98.0491V103.21H116.138V98.0491Z" fill="black"/>
<path d="M121.188 98.0491H116.138V103.21H121.188V98.0491Z" fill="black"/>
<path d="M5.04948 103.21H0V108.37H5.04948V103.21Z" fill="black"/>
<path d="M15.1484 103.21H10.099V108.37H15.1484V103.21Z" fill="black"/>
<path d="M20.1979 103.21H15.1484V108.37H20.1979V103.21Z" fill="black"/>
<path d="M25.2474 103.21H20.1979V108.37H25.2474V103.21Z" fill="black"/>
<path d="M35.3464 103.21H30.2969V108.37H35.3464V103.21Z" fill="black"/>
<path d="M50.4948 103.21H45.4453V108.37H50.4948V103.21Z" fill="black"/>
<path d="M65.6432 103.21H60.5938V108.37H65.6432V103.21Z" fill="black"/>
<path d="M70.6927 103.21H65.6432V108.37H70.6927L70.6927 103.21Z" fill="black"/>
<path d="M75.7422 103.21H70.6927L70.6927 108.37H75.7422V103.21Z" fill="black"/>
<path d="M85.8411 103.21H80.7917V108.37H85.8411V103.21Z" fill="black"/>
<path d="M90.8906 103.21H85.8411V108.37H90.8906V103.21Z" fill="black"/>
<path d="M95.9401 103.21H90.8906V108.37H95.9401V103.21Z" fill="black"/>
<path d="M100.99 103.21H95.9401V108.37H100.99V103.21Z" fill="black"/>
<path d="M106.039 103.21H100.99V108.37H106.039V103.21Z" fill="black"/>
<path d="M121.188 103.21H116.138V108.37H121.188V103.21Z" fill="black"/>
<path d="M5.04948 108.37H0V113.53H5.04948V108.37Z" fill="black"/>
<path d="M15.1484 108.37H10.099V113.53H15.1484V108.37Z" fill="black"/>
<path d="M20.1979 108.37H15.1484V113.53H20.1979V108.37Z" fill="black"/>
<path d="M25.2474 108.37H20.1979V113.53H25.2474V108.37Z" fill="black"/>
<path d="M35.3464 108.37H30.2969V113.53H35.3464V108.37Z" fill="black"/>
<path d="M45.4453 108.37L40.3958 108.37V113.53H45.4453V108.37Z" fill="black"/>
<path d="M50.4948 108.37H45.4453V113.53H50.4948V108.37Z" fill="black"/>
<path d="M55.5443 108.37L50.4948 108.37V113.53H55.5443V108.37Z" fill="black"/>
<path d="M60.5938 108.37L55.5443 108.37V113.53H60.5938V108.37Z" fill="black"/>
<path d="M70.6927 108.37H65.6432V113.53H70.6927V108.37Z" fill="black"/>
<path d="M80.7917 108.37H75.7422V113.53H80.7917V108.37Z" fill="black"/>
<path d="M85.8411 108.37H80.7917V113.53H85.8411V108.37Z" fill="black"/>
<path d="M100.99 108.37H95.9401V113.53H100.99V108.37Z" fill="black"/>
<path d="M106.039 108.37H100.99V113.53H106.039V108.37Z" fill="black"/>
<path d="M116.138 108.37L111.089 108.37V113.53H116.138V108.37Z" fill="black"/>
<path d="M5.04948 113.53H0V118.691H5.04948V113.53Z" fill="black"/>
<path d="M15.1484 113.53H10.099V118.691H15.1484V113.53Z" fill="black"/>
<path d="M20.1979 113.53H15.1484V118.691H20.1979V113.53Z" fill="black"/>
<path d="M25.2474 113.53H20.1979V118.691H25.2474V113.53Z" fill="black"/>
<path d="M35.3464 113.53H30.2969V118.691H35.3464V113.53Z" fill="black"/>
<path d="M50.4948 113.53H45.4453V118.691H50.4948V113.53Z" fill="black"/>
<path d="M65.6432 113.53H60.5938V118.691H65.6432V113.53Z" fill="black"/>
<path d="M75.7422 113.53H70.6927L70.6927 118.691H75.7422V113.53Z" fill="black"/>
<path d="M80.7917 113.53H75.7422V118.691H80.7917V113.53Z" fill="black"/>
<path d="M85.8411 113.53H80.7917V118.691H85.8411V113.53Z" fill="black"/>
<path d="M106.039 113.53H100.99V118.691H106.039V113.53Z" fill="black"/>
<path d="M111.089 113.53H106.039V118.691H111.089V113.53Z" fill="black"/>
<path d="M116.138 113.53H111.089V118.691H116.138V113.53Z" fill="black"/>
<path d="M126.237 113.53H121.188V118.691H126.237V113.53Z" fill="black"/>
<path d="M5.04948 118.691H0V123.851H5.04948V118.691Z" fill="black"/>
<path d="M35.3464 118.691H30.2969V123.851H35.3464V118.691Z" fill="black"/>
<path d="M45.4453 118.691L40.3958 118.691V123.851H45.4453V118.691Z" fill="black"/>
<path d="M65.6432 118.691H60.5938V123.851H65.6432V118.691Z" fill="black"/>
<path d="M70.6927 118.691H65.6432V123.851H70.6927L70.6927 118.691Z" fill="black"/>
<path d="M80.7917 118.691H75.7422V123.851H80.7917V118.691Z" fill="black"/>
<path d="M85.8411 118.691H80.7917V123.851H85.8411V118.691Z" fill="black"/>
<path d="M95.9401 118.691H90.8906V123.851H95.9401V118.691Z" fill="black"/>
<path d="M111.089 118.691H106.039L106.039 123.851H111.089V118.691Z" fill="black"/>
<path d="M5.04948 123.851H0V129.012H5.04948V123.851Z" fill="black"/>
<path d="M10.099 123.851H5.04948V129.012H10.099V123.851Z" fill="black"/>
<path d="M15.1484 123.851H10.099V129.012H15.1484V123.851Z" fill="black"/>
<path d="M20.1979 123.851H15.1484V129.012H20.1979V123.851Z" fill="black"/>
<path d="M25.2474 123.851H20.1979V129.012H25.2474V123.851Z" fill="black"/>
<path d="M30.2969 123.851H25.2474V129.012H30.2969V123.851Z" fill="black"/>
<path d="M35.3464 123.851H30.2969V129.012H35.3464V123.851Z" fill="black"/>
<path d="M45.4453 123.851H40.3958V129.012H45.4453V123.851Z" fill="black"/>
<path d="M50.4948 123.851H45.4453V129.012H50.4948V123.851Z" fill="black"/>
<path d="M70.6927 123.851H65.6432V129.012H70.6927V123.851Z" fill="black"/>
<path d="M80.7917 123.851H75.7422V129.012H80.7917V123.851Z" fill="black"/>
<path d="M85.8411 123.851H80.7917V129.012H85.8411V123.851Z" fill="black"/>
<path d="M90.8906 123.851H85.8411V129.012H90.8906V123.851Z" fill="black"/>
<path d="M95.9401 123.851H90.8906V129.012H95.9401V123.851Z" fill="black"/>
<path d="M100.99 123.851H95.9401V129.012H100.99V123.851Z" fill="black"/>
<path d="M121.188 123.851H116.138V129.012H121.188V123.851Z" fill="black"/>
<path d="M126.237 123.851H121.188V129.012H126.237V123.851Z" fill="black"/>
</svg>
