<svg width="189" height="190" viewBox="0 0 189 190" fill="none" xmlns="http://www.w3.org/2000/svg">
<path d="M99.9051 185.655L102.21 183.917L103.911 189.544L104.487 183.682L107.08 184.938C105.621 183.337 104.646 181.351 104.268 179.214C103.347 179.221 102.428 179.314 101.524 179.49C101.565 181.662 100.989 183.8 99.8639 185.655H99.9051ZM99.5484 189.999C99.9188 189.999 100.207 189.351 100.166 188.62C100.125 187.889 99.7953 187.241 99.4249 187.241C99.0545 187.241 98.7664 187.889 98.7938 188.62C98.8212 189.351 99.2054 190.013 99.5895 189.999H99.5484ZM108.233 189.144C107.862 189.144 107.464 188.634 107.341 187.889C107.218 187.144 107.451 186.51 107.821 186.413C108.192 186.317 108.589 186.924 108.699 187.682C108.809 188.441 108.644 189.089 108.274 189.144H108.233ZM89.4508 4.99272C88.3324 6.84954 87.7615 8.98748 87.8045 11.1578C86.8999 11.3299 85.9813 11.4176 85.0606 11.4198C84.7045 9.28893 83.7528 7.30381 82.3167 5.69611L84.8411 6.89602L85.4173 1.10336L87.1185 6.73052L89.4508 4.99272ZM81.0957 1.50333C81.4661 1.50333 81.864 2.01364 81.9737 2.75841C82.0835 3.50318 81.8777 4.13761 81.5073 4.22037C81.1369 4.30312 80.7253 3.71006 80.6155 2.96529C80.5058 2.22052 80.7116 1.5585 81.0957 1.50333ZM89.7801 0.648226C89.396 0.648226 89.1216 1.29645 89.149 2.02743C89.1765 2.75841 89.5194 3.40664 89.9036 3.40664C90.2877 3.40664 90.5484 2.75841 90.5484 1.98605C90.5484 1.2137 90.1505 0.620642 89.7801 0.648226ZM117.37 182.896L119.277 180.676L122.021 185.875L121.445 180.014L124.189 180.745C122.447 179.458 121.101 177.704 120.306 175.683C119.416 175.867 118.543 176.13 117.699 176.469C118.199 178.599 118.085 180.829 117.37 182.896ZM117.891 187.227C118.262 187.13 118.413 186.455 118.234 185.724C118.056 184.993 117.603 184.455 117.233 184.551C116.862 184.648 116.711 185.31 116.903 186.055C117.096 186.799 117.521 187.31 117.891 187.227ZM126.219 184.675C125.862 184.813 125.368 184.331 125.108 183.613C124.847 182.896 124.929 182.234 125.286 182.083C125.643 181.931 126.137 182.441 126.397 183.145C126.658 183.848 126.603 184.551 126.219 184.675ZM71.9997 7.75113C71.255 9.79021 71.1027 12.0002 71.5607 14.1231C70.7169 14.4662 69.8446 14.7339 68.954 14.923C68.1681 12.8971 66.8206 11.1404 65.0714 9.86131L67.8153 10.5785L67.2253 4.73067L69.9692 9.91648L71.9997 7.75113ZM63.1095 5.95816C63.4525 5.83403 63.9601 6.31676 64.2208 7.02015C64.4814 7.72355 64.3991 8.39935 64.0424 8.55107C63.6857 8.70278 63.1781 8.20627 62.9174 7.48908C62.6568 6.77189 62.7665 6.09608 63.1095 5.95816ZM71.4509 3.42043C71.0805 3.51697 70.9296 4.19278 71.1217 4.92376C71.3137 5.65474 71.739 6.19263 72.1095 6.09608C72.4799 5.99954 72.6308 5.32373 72.4524 4.59275C72.2741 3.86177 71.8351 3.32388 71.4646 3.42043H71.4509ZM133.957 176.773L135.411 174.276L139.129 178.828L137.428 173.187L140.309 173.366C138.357 172.463 136.694 171.03 135.507 169.228C134.67 169.582 133.866 170.011 133.106 170.511C133.961 172.479 134.256 174.647 133.957 176.773ZM135.329 180.91C135.658 180.745 135.685 180.055 135.329 179.366C134.972 178.676 134.478 178.248 134.135 178.414C133.792 178.579 133.765 179.269 134.135 179.959C134.506 180.648 134.972 181.076 135.315 180.91H135.329ZM143.025 176.773C142.696 176.966 142.106 176.593 141.722 175.945C141.338 175.297 141.269 174.566 141.598 174.414C141.928 174.262 142.504 174.58 142.97 175.228C143.437 175.876 143.327 176.538 143.012 176.786L143.025 176.773ZM55.4129 13.8748C55.0858 16.022 55.3761 18.2185 56.2498 20.2053C55.4905 20.7103 54.6869 21.1442 53.8489 21.5018C52.6849 19.669 51.0234 18.2093 49.0608 17.2952L51.9281 17.4607L50.1995 11.8336L53.9312 16.3712L55.4129 13.8748ZM46.358 13.8748C46.6736 13.6817 47.2635 14.0541 47.6477 14.7023C48.0318 15.3505 48.1004 16.0815 47.7711 16.2332C47.4419 16.3849 46.8657 16.0539 46.4815 15.4057C46.0974 14.7575 46.0288 14.0541 46.358 13.861V13.8748ZM54.0547 9.73718C53.7117 9.8889 53.6979 10.5785 54.0547 11.2681C54.4114 11.9577 54.919 12.3853 55.262 12.2335C55.6049 12.0818 55.6187 11.3784 55.262 10.6888C54.9053 9.99923 54.3976 9.57168 54.0547 9.73718ZM149.021 167.518L149.967 164.76L154.509 168.484L151.765 163.284L154.618 162.898C152.529 162.372 150.628 161.268 149.13 159.712C148.379 160.225 147.677 160.807 147.031 161.45C148.257 163.24 148.947 165.346 149.021 167.518ZM151.161 171.311C151.463 171.09 151.353 170.401 150.9 169.794C150.448 169.187 149.844 168.87 149.528 169.09C149.213 169.311 149.336 170.001 149.789 170.608C150.242 171.214 150.914 171.532 151.161 171.311ZM157.911 165.794C157.623 166.042 156.992 165.794 156.539 165.242C156.086 164.691 155.853 164.015 156.127 163.753C156.402 163.491 157.047 163.753 157.499 164.318C157.952 164.884 158.185 165.505 157.911 165.753V165.794ZM40.3352 23.1293C40.4304 25.2996 41.1343 27.3987 42.3657 29.184C41.717 29.8228 41.0147 30.4043 40.2666 30.9218C38.7727 29.361 36.8703 28.2565 34.7788 27.7358L37.6325 27.3358L34.8886 22.15L39.416 25.8877L40.3352 23.1293ZM31.4587 24.8946C31.7331 24.6326 32.3779 24.8946 32.8307 25.4463C33.2834 25.998 33.5303 26.6738 33.2422 26.9221C32.9541 27.1703 32.323 26.9221 31.8703 26.3704C31.4176 25.8187 31.1706 25.1429 31.4587 24.8946ZM38.195 19.3778C37.8931 19.5985 38.0166 20.2881 38.4556 20.8949C38.8947 21.5018 39.5258 21.819 39.8276 21.5983C40.1294 21.3777 40.0059 20.6881 39.5669 20.0812C39.1279 19.4744 38.4968 19.102 38.195 19.3089V19.3778ZM162.013 155.533L162.411 152.664L167.583 155.423L163.865 150.871L166.609 149.933C164.45 149.838 162.362 149.13 160.586 147.892C159.94 148.535 159.361 149.242 158.858 150.002C160.4 151.499 161.493 153.401 162.013 155.492V155.533ZM164.839 158.829C165.1 158.553 164.839 157.905 164.29 157.45C163.742 156.995 163.069 156.747 162.822 157.022C162.576 157.298 162.822 157.946 163.371 158.402C163.92 158.857 164.633 159.064 164.839 158.788V158.829ZM170.327 152.057C170.108 152.361 169.422 152.25 168.818 151.795C168.214 151.34 167.899 150.733 168.118 150.416C168.338 150.099 169.024 150.223 169.627 150.678C170.231 151.133 170.601 151.712 170.382 152.016L170.327 152.057ZM27.3429 35.1559C27.8643 37.257 28.9624 39.1686 30.5121 40.6727C30.0051 41.4144 29.436 42.1112 28.8109 42.7553C27.029 41.5191 24.9371 40.8117 22.7743 40.7141L25.5182 39.7625L21.8002 35.2111L26.9587 37.9695L27.3429 35.1559ZM18.974 38.6177C19.2072 38.3005 19.8795 38.4246 20.4831 38.8798C21.0868 39.3349 21.4161 39.9418 21.1828 40.259C20.9496 40.5762 20.2911 40.4521 19.6737 39.9969C19.0563 39.5418 18.7545 38.9349 18.974 38.6177ZM24.4618 31.8458C24.2011 32.1217 24.4618 32.7699 25.0106 33.225C25.5593 33.6802 26.2316 33.9284 26.4923 33.6388C26.7529 33.3492 26.4923 32.7147 25.9298 32.2596C25.3673 31.8045 24.7636 31.57 24.5167 31.8596L24.4618 31.8458ZM172.358 141.134L172.193 138.251L177.804 139.948L173.277 136.21L175.76 134.748C173.618 135.086 171.424 134.804 169.435 133.935C168.932 134.695 168.505 135.504 168.159 136.348C170.005 137.505 171.482 139.171 172.412 141.148L172.358 141.134ZM175.774 143.81C175.979 143.492 175.609 142.899 174.964 142.513C174.319 142.127 173.592 142.058 173.428 142.389C173.263 142.72 173.606 143.299 174.251 143.686C174.896 144.072 175.609 144.154 175.829 143.823L175.774 143.81ZM179.889 136.086C179.725 136.431 179.039 136.445 178.353 136.086C177.667 135.728 177.242 135.217 177.406 134.872C177.571 134.528 178.257 134.514 178.943 134.872C179.629 135.231 180.109 135.755 179.944 136.1L179.889 136.086ZM16.9435 49.4996C17.8654 51.4644 19.3146 53.1315 21.128 54.3131C20.7766 55.155 20.3495 55.9628 19.8521 56.7267C17.8674 55.8608 15.6803 55.574 13.5411 55.8992L16.0106 54.4372L11.4832 50.6996L17.1082 52.4098L16.9435 49.4996ZM9.41155 54.5337C9.57618 54.1889 10.2622 54.1751 10.9481 54.5337C11.6341 54.8923 12.0594 55.3889 11.8948 55.7337C11.7301 56.0785 11.0442 56.0922 10.3582 55.7337C9.67222 55.3751 9.24691 54.8785 9.41155 54.5337ZM13.5274 46.8102C13.3353 47.1412 13.692 47.7205 14.3506 48.1894C15.0091 48.6583 15.7225 48.6307 15.8734 48.2997C16.0243 47.9687 15.7088 47.4033 15.0502 47.0033C14.3917 46.6033 13.7195 46.493 13.5274 46.8102ZM179.821 125.039L179.094 122.28L184.938 122.846L179.725 119.991L181.865 118.06C179.832 118.808 177.629 118.961 175.513 118.501C175.178 119.346 174.916 120.218 174.731 121.108C176.764 121.906 178.53 123.269 179.821 125.039ZM183.703 126.997C183.827 126.652 183.347 126.142 182.647 125.894C181.947 125.646 181.275 125.714 181.124 126.073C180.973 126.432 181.467 126.928 182.181 127.19C182.894 127.452 183.566 127.356 183.703 126.997ZM186.228 118.612C186.146 118.97 185.473 119.122 184.732 118.943C183.992 118.763 183.484 118.322 183.566 117.95C183.649 117.577 184.335 117.425 185.062 117.605C185.789 117.784 186.324 118.253 186.228 118.612ZM9.60362 65.595C10.8785 67.3567 12.6314 68.7117 14.6524 69.4981C14.458 70.3918 14.1919 71.2681 13.8566 72.1186C11.7416 71.6557 9.53935 71.8039 7.50454 72.5462L9.60362 70.6291L4.43138 67.8707L10.2622 68.4499L9.60362 65.595ZM3.12804 72.0221C3.21035 71.6497 3.88261 71.498 4.62346 71.6773C5.36431 71.8565 5.88565 72.3117 5.78961 72.6841C5.69357 73.0565 5.02132 73.1944 4.29419 73.0151C3.56706 72.8358 3.032 72.3944 3.12804 72.0221ZM5.65242 63.6365C5.52894 63.9951 6.00912 64.4916 6.70881 64.7536C7.40851 65.0157 8.08076 64.9329 8.24539 64.5743C8.41003 64.2158 7.88869 63.7192 7.17528 63.4572C6.46186 63.1951 5.78961 63.2779 5.65242 63.6365ZM184.005 107.771L182.757 105.164L188.588 104.585L182.976 102.875L184.719 100.572C182.867 101.698 180.737 102.277 178.572 102.24C178.396 103.149 178.305 104.073 178.298 104.999C180.411 105.379 182.374 106.349 183.964 107.799L184.005 107.771ZM188.121 108.93C188.121 108.557 187.614 108.157 186.873 108.047C186.132 107.937 185.501 108.143 185.405 108.516C185.309 108.888 185.912 109.302 186.653 109.412C187.394 109.523 188.094 109.343 188.149 108.957L188.121 108.93ZM188.972 100.213C188.972 100.599 188.327 100.875 187.6 100.847C186.873 100.82 186.228 100.475 186.228 100.089C186.228 99.7027 186.886 99.4268 187.6 99.4682C188.313 99.5096 189.027 99.8682 188.999 100.241L188.972 100.213ZM5.39175 82.8488C6.99135 84.3154 8.96914 85.2999 11.099 85.69C11.0924 86.616 11.0006 87.5394 10.8246 88.4484C8.66046 88.4119 6.52999 88.9904 4.67833 90.1172L6.4207 87.8139L0.809448 86.0624L6.65394 85.5107L5.39175 82.8488ZM0.356706 90.3931C0.356706 90.0207 1.00152 89.731 1.72865 89.7724C2.45578 89.8138 3.1006 90.1448 3.1006 90.5172C3.1006 90.8896 2.45578 91.1792 1.72865 91.1516C1.00152 91.124 0.342986 90.7792 0.356706 90.3931ZM1.20731 81.6765C1.20731 82.0489 1.71493 82.4488 2.4695 82.573C3.22407 82.6971 3.84145 82.4626 3.92376 82.0902C4.00608 81.7179 3.41614 81.3731 2.74389 81.2076C2.07164 81.0421 1.26219 81.3731 1.20731 81.6765ZM184.678 90.0758L182.935 87.7726L188.546 86.0624L182.716 85.5107L183.964 82.9178C182.365 84.3843 180.387 85.3689 178.257 85.7589C178.263 86.6849 178.355 87.6084 178.531 88.5173C180.685 88.4476 182.815 88.9876 184.678 90.0758ZM188.999 90.3931C188.999 90.0207 188.354 89.731 187.627 89.7724C186.9 89.8138 186.255 90.1448 186.255 90.5172C186.255 90.8896 186.914 91.1792 187.627 91.1516C188.341 91.124 189.027 90.7792 188.999 90.3931ZM188.149 81.6765C188.149 82.0489 187.641 82.4488 186.9 82.573C186.159 82.6971 185.528 82.4626 185.432 82.0902C185.336 81.7179 185.94 81.3179 186.681 81.2076C187.421 81.0972 188.094 81.3731 188.149 81.6765ZM4.67833 100.572C6.52999 101.698 8.66046 102.277 10.8246 102.24C11.0006 103.149 11.0924 104.073 11.099 104.999C8.96724 105.383 6.98795 106.368 5.39175 107.84L6.65394 105.233L0.809448 104.613L6.4207 102.902L4.67833 100.572ZM1.20731 108.957C1.20731 108.585 1.71493 108.185 2.4695 108.074C3.22407 107.964 3.84145 108.171 3.92376 108.543C4.00608 108.916 3.41614 109.33 2.66157 109.44C1.907 109.55 1.26219 109.343 1.20731 108.957ZM0.356706 100.241C0.356706 100.627 1.00152 100.903 1.72865 100.875C2.45578 100.847 3.1006 100.503 3.1006 100.116C3.1006 99.7303 2.45578 99.4544 1.72865 99.4958C1.00152 99.5372 0.342986 99.8682 0.356706 100.241ZM181.92 72.5462L179.725 70.6291L184.883 67.8707L179.053 68.4499L179.78 65.6915C178.507 67.45 176.76 68.8046 174.745 69.5947C174.928 70.4896 175.19 71.3665 175.527 72.2151C177.646 71.7125 179.863 71.8273 181.92 72.5462ZM186.228 72.0221C186.146 71.6497 185.473 71.498 184.732 71.6773C183.992 71.8565 183.484 72.3117 183.566 72.6841C183.649 73.0565 184.335 73.2082 185.062 73.0151C185.789 72.822 186.324 72.3944 186.228 72.0221ZM183.703 63.6365C183.827 63.9951 183.347 64.4916 182.647 64.7536C181.947 65.0157 181.275 64.9329 181.124 64.5743C180.973 64.2158 181.467 63.7192 182.181 63.4572C182.894 63.1951 183.566 63.2779 183.703 63.6365ZM7.43595 118.087C9.46929 118.835 11.6717 118.988 13.7881 118.529C14.1231 119.373 14.3847 120.246 14.5701 121.136C12.5852 121.946 10.865 123.298 9.60362 125.039L10.3308 122.28L4.49998 122.846L9.60362 119.991L7.43595 118.087ZM5.65242 127.011C5.52894 126.652 6.00912 126.142 6.70881 125.894C7.40851 125.646 8.08076 125.714 8.23167 126.073C8.38259 126.432 7.88869 126.928 7.17528 127.19C6.46186 127.452 5.78961 127.356 5.65242 127.011ZM3.12804 118.612C3.21035 118.984 3.88261 119.122 4.62346 118.943C5.36431 118.763 5.88565 118.322 5.78961 117.95C5.69357 117.577 5.02132 117.425 4.29419 117.605C3.56706 117.784 3.032 118.253 3.12804 118.612ZM175.829 55.8992L173.345 54.4372L177.873 50.6996L172.248 52.4098L172.412 49.5272C171.509 51.4832 170.085 53.1494 168.297 54.3407C168.648 55.1825 169.075 55.9904 169.572 56.7543C171.538 55.8907 173.705 55.5947 175.829 55.8992ZM179.944 54.52C179.78 54.1889 179.094 54.1614 178.408 54.52C177.722 54.8785 177.297 55.3751 177.461 55.7199C177.626 56.0647 178.312 56.0784 178.998 55.7199C179.684 55.3613 180.109 54.8785 179.944 54.5337V54.52ZM175.829 46.7964C176.021 47.1274 175.664 47.7067 175.005 48.1756C174.347 48.6445 173.633 48.617 173.483 48.2997C173.332 47.9825 173.661 47.3895 174.306 46.9895C174.951 46.5895 175.609 46.493 175.829 46.8102V46.7964ZM13.5411 134.734C15.6789 135.072 17.8683 134.79 19.8521 133.921C20.3523 134.683 20.7795 135.491 21.128 136.334C19.3088 137.509 17.8579 139.178 16.9435 141.148L17.1082 138.265L11.4969 139.962L16.0243 136.224L13.5411 134.734ZM13.5411 143.823C13.349 143.506 13.7057 142.927 14.3643 142.527C15.0228 142.127 15.7362 142.086 15.8871 142.403C16.038 142.72 15.7088 143.313 15.064 143.699C14.4191 144.085 13.7195 144.154 13.5274 143.823H13.5411ZM9.42526 136.1C9.5899 136.445 10.2759 136.458 10.9618 136.1C11.6478 135.741 12.0731 135.231 11.9085 134.886C11.7439 134.541 11.0579 134.528 10.3719 134.886C9.68594 135.245 9.24691 135.755 9.41155 136.1H9.42526ZM162.013 35.1559C161.494 37.2581 160.396 39.1704 158.844 40.6727C159.342 41.4134 159.902 42.1101 160.518 42.7553C162.299 41.5191 164.391 40.8117 166.554 40.7141L163.81 39.7625L167.528 35.2249L162.356 37.9833L162.013 35.1559ZM170.382 38.6315C170.162 38.3281 169.476 38.4384 168.873 38.8936C168.269 39.3487 167.94 39.9556 168.173 40.2728C168.406 40.59 169.079 40.4659 169.682 40.0107C170.286 39.5556 170.601 38.9349 170.382 38.6177V38.6315ZM164.894 31.8596C165.155 32.1355 164.894 32.7837 164.345 33.2388C163.797 33.694 163.124 33.9422 162.877 33.6526C162.63 33.363 162.877 32.7285 163.426 32.2734C163.975 31.8182 164.633 31.57 164.839 31.8596H164.894ZM22.7606 149.878C24.929 149.788 27.0271 149.08 28.8109 147.837C29.4535 148.483 30.0325 149.189 30.5395 149.947C28.9875 151.449 27.889 153.362 27.3703 155.464L26.9725 152.595L21.8002 155.354L25.5182 150.802L22.7606 149.878ZM24.5167 158.788C24.256 158.512 24.5167 157.864 25.0654 157.409C25.6142 156.953 26.2865 156.705 26.5334 156.995C26.7804 157.284 26.5334 157.919 25.9846 158.374C25.4359 158.829 24.7636 159.064 24.5167 158.788ZM19.0289 152.016C19.2484 152.319 19.9344 152.209 20.538 151.754C21.1417 151.299 21.4709 150.692 21.2377 150.375C21.0045 150.057 20.3322 150.182 19.7286 150.637C19.1249 151.092 18.7545 151.712 18.974 152.016H19.0289ZM154.618 27.7358L151.765 27.3358L154.509 22.15L149.981 25.8877L149.034 23.1293C148.939 25.2996 148.235 27.3987 147.004 29.184C147.653 29.8228 148.355 30.4043 149.103 30.9218C150.608 29.3613 152.519 28.2573 154.618 27.7358ZM157.911 24.8946C157.623 24.6326 156.978 24.8946 156.539 25.4463C156.1 25.998 155.853 26.6738 156.127 26.9221C156.402 27.1703 157.047 26.9221 157.499 26.3704C157.952 25.8187 158.185 25.1429 157.911 24.8946ZM151.161 19.3778C151.463 19.5985 151.353 20.2881 150.9 20.8949C150.448 21.5018 149.844 21.819 149.528 21.5983C149.213 21.3777 149.35 20.6881 149.789 20.0812C150.228 19.4744 150.914 19.1158 151.161 19.3089V19.3778ZM34.7377 162.912C36.8269 162.385 38.7278 161.282 40.2254 159.726C40.9735 160.243 41.6758 160.825 42.3245 161.463C41.087 163.246 40.3825 165.347 40.294 167.518L39.3474 164.76L34.82 168.484L37.5639 163.298L34.7377 162.912ZM38.195 171.311C37.8931 171.09 38.0029 170.401 38.4556 169.794C38.9084 169.187 39.512 168.87 39.8276 169.09C40.1431 169.311 40.0059 170.001 39.5669 170.608C39.1279 171.214 38.4968 171.532 38.195 171.311ZM31.445 165.794C31.7331 166.056 32.3779 165.794 32.8169 165.242C33.256 164.691 33.5166 164.015 33.2285 163.753C32.9404 163.491 32.3093 163.753 31.8566 164.318C31.4038 164.884 31.1706 165.505 31.445 165.753V165.794ZM140.323 17.2952L137.455 17.4607L139.156 11.8336L135.411 16.3574L133.943 13.8748C134.279 16.0239 133.998 18.2248 133.134 20.2191C133.893 20.7196 134.697 21.1489 135.535 21.5018C136.706 19.6754 138.365 18.2176 140.323 17.2952ZM143.066 13.861C142.751 13.6679 142.161 14.0403 141.777 14.6885C141.393 15.3368 141.324 16.0677 141.653 16.2194C141.983 16.3712 142.559 16.0539 142.943 15.3919C143.327 14.7299 143.327 14.0541 142.998 13.861H143.066ZM135.37 9.72339C135.713 9.8751 135.74 10.5785 135.37 11.2543C134.999 11.9301 134.506 12.3715 134.163 12.2198C133.82 12.068 133.806 11.3646 134.163 10.675C134.519 9.98544 134.958 9.57168 135.301 9.73718L135.37 9.72339ZM49.0333 173.352C50.979 172.444 52.6364 171.012 53.8214 169.215C54.659 169.567 55.4627 169.997 56.2223 170.497C55.3576 172.492 55.0768 174.692 55.4129 176.842L53.9449 174.345L50.2269 178.897L51.9281 173.269L49.0333 173.352ZM54.0547 180.91C53.7117 180.745 53.6842 180.055 54.0547 179.366C54.4251 178.676 54.919 178.262 55.262 178.414C55.6049 178.566 55.6187 179.269 55.262 179.959C54.9053 180.648 54.3976 181.076 54.0547 180.91ZM46.358 176.773C46.6736 176.966 47.2635 176.593 47.6477 175.945C48.0318 175.297 48.1004 174.566 47.7711 174.414C47.4419 174.262 46.8657 174.58 46.4815 175.228C46.0974 175.876 46.0288 176.538 46.358 176.786V176.773ZM124.285 9.8889L121.541 10.6061L122.103 4.73067L119.359 9.91648L117.37 7.75113C118.109 9.7917 118.257 12.0015 117.795 14.1231C118.637 14.4725 119.51 14.7403 120.402 14.923C121.192 12.8998 122.539 11.1443 124.285 9.86131V9.8889ZM126.219 5.97195C125.862 5.83403 125.355 6.31676 125.108 7.02015C124.861 7.72355 124.929 8.39935 125.286 8.55107C125.643 8.70278 126.137 8.20627 126.397 7.48908C126.658 6.77189 126.603 6.09608 126.219 5.97195ZM117.891 3.42043C118.262 3.51697 118.413 4.19278 118.234 4.92376C118.056 5.65474 117.603 6.19263 117.233 6.09608C116.862 5.99954 116.711 5.33752 116.89 4.59275C117.068 3.84798 117.521 3.33767 117.891 3.42043ZM65.0714 180.786C66.8169 179.503 68.1634 177.748 68.954 175.724C69.8462 175.907 70.7191 176.175 71.5607 176.524C71.0998 178.646 71.2473 180.856 71.986 182.896L70.079 180.745L67.3351 185.931L67.9113 180.069L65.0714 180.786ZM71.4646 187.227C71.0942 187.13 70.9433 186.455 71.1217 185.724C71.3 184.993 71.7527 184.455 72.1232 184.551C72.4936 184.648 72.6445 185.31 72.4662 186.055C72.2878 186.799 71.8351 187.31 71.4646 187.227ZM63.1095 184.675C63.4662 184.813 63.9738 184.331 64.2208 183.613C64.4677 182.896 64.3991 182.234 64.0424 182.083C63.6857 181.931 63.1918 182.441 62.9311 183.145C62.6705 183.848 62.7528 184.551 63.1095 184.675ZM107.108 5.69611L104.515 6.96498L103.939 1.10336L102.196 6.73052L99.9051 4.99272C101.012 6.85331 101.573 8.99045 101.524 11.1578C102.429 11.3275 103.347 11.4198 104.268 11.4336C104.651 9.28806 105.636 7.29735 107.108 5.69611ZM108.274 1.5585C107.89 1.5585 107.492 2.06881 107.382 2.81358C107.272 3.55835 107.478 4.19278 107.862 4.27553C108.247 4.35829 108.631 3.76523 108.74 3.02046C108.85 2.27569 108.644 1.5585 108.274 1.50333V1.5585ZM99.5895 0.648226C99.9599 0.648226 100.234 1.29645 100.207 2.02743C100.179 2.75841 99.8365 3.40664 99.4523 3.40664C99.0682 3.40664 98.7801 2.75841 98.7801 1.98605C98.7801 1.2137 99.2054 0.620642 99.5895 0.648226ZM82.3167 184.951C83.7532 183.339 84.7048 181.349 85.0606 179.214C85.9813 179.228 86.8992 179.321 87.8045 179.49C87.7679 181.661 88.3434 183.798 89.4646 185.655L87.1734 183.917L85.4585 189.544L84.8823 183.682L82.3167 184.951ZM89.835 189.999C89.4646 189.999 89.1765 189.351 89.2176 188.62C89.2588 187.889 89.588 187.241 89.9722 187.241C90.3563 187.241 90.617 187.889 90.5896 188.62C90.5621 189.351 90.1505 190.027 89.7664 189.999H89.835ZM81.1643 189.144C81.5347 189.144 81.9326 188.634 82.0423 187.889C82.1521 187.144 81.9463 186.51 81.5622 186.413C81.178 186.317 80.7939 186.924 80.6841 187.682C80.5744 188.441 80.7116 189.089 81.0957 189.144H81.1643ZM94.8838 79.6215C91.7905 79.5861 88.7563 80.4744 86.1657 82.174C83.5751 83.8736 81.5445 86.3079 80.3313 89.1686C79.118 92.0293 78.7767 95.1876 79.3505 98.2435C79.9243 101.299 81.3875 104.115 83.5546 106.335C85.7217 108.554 88.4953 110.076 91.524 110.71C94.5527 111.343 97.7001 111.058 100.568 109.892C103.435 108.725 105.894 106.729 107.632 104.156C109.37 101.584 110.31 98.5507 110.332 95.4409C110.354 91.2744 108.731 87.2692 105.82 84.3036C102.908 81.3381 98.946 79.6543 94.8014 79.6215H94.8838ZM94.8838 76.6562C98.5908 76.7001 102.2 77.8581 105.247 79.9812C108.294 82.1043 110.639 85.0954 111.981 88.5696C113.323 92.0438 113.6 95.8422 112.777 99.476C111.954 103.11 110.068 106.413 107.362 108.96C104.656 111.508 101.253 113.183 97.5923 113.77C93.9313 114.358 90.1793 113.83 86.8189 112.256C83.4585 110.682 80.6435 108.133 78.736 104.938C76.8285 101.742 75.9159 98.0453 76.1155 94.3238C76.3895 89.532 78.4817 85.0284 81.9608 81.7413C85.4398 78.4542 90.0407 76.6341 94.8151 76.6562H94.8838ZM80.4372 39.8038C78.9966 40.2728 79.0652 38.1902 78.5988 37.404C78.2283 37.7212 77.707 38.9901 77.2268 38.4108C76.7466 37.8316 75.2238 36.5765 76.6094 34.8801C76.7192 34.7422 76.1979 34.8111 76.143 34.7422C75.3335 33.5698 76.7878 31.2666 78.2009 30.4528C79.2024 29.8736 80.3137 29.6391 80.7664 30.2046C79.8884 31.5838 78.8183 33.1974 79.175 34.0526C79.2847 34.3422 79.6963 34.8111 80.1902 34.356C80.6111 32.9818 81.3384 31.7223 82.3167 30.6735C88.4219 25.8187 92.2633 38.6039 91.3167 43.4587L89.7252 43.5553C89.3805 42.4646 89.25 41.317 89.3411 40.1762C89.2451 38.2867 86.9402 38.1074 86.46 36.5765C86.46 36.4662 87.6536 36.5765 87.5576 35.7628C87.5201 35.6606 87.4599 35.5684 87.3817 35.4932C87.3034 35.4179 87.2092 35.3615 87.1061 35.3283C87.0029 35.295 86.8936 35.2858 86.7865 35.3014C86.6793 35.3169 86.577 35.3568 86.4875 35.418C85.0058 36.3145 84.0591 36.3007 83.6475 35.7214C83.3317 35.2062 83.201 34.5977 83.2771 33.9974C83.2771 33.5836 83.0987 33.4871 82.7558 33.7629C82.4465 34.1189 82.2716 34.573 82.2618 35.0456C82.4539 36.5765 84.5118 37.6247 83.1673 38.8936C83.085 38.9763 82.9067 39.0039 82.8518 39.1418C82.55 39.9693 82.8518 41.9002 81.2466 42.3692C81.075 42.4435 80.886 42.4675 80.7014 42.4382C80.5169 42.4089 80.3444 42.3275 80.2039 42.2037C78.9555 41.3761 81.3701 40.4383 80.4372 39.8038ZM108.246 39.8038C109.618 40.2728 109.618 38.1902 110.085 37.404C110.455 37.7212 110.977 38.9901 111.457 38.4108C111.937 37.8316 113.474 36.5765 112.074 34.8801C111.964 34.7422 112.486 34.8111 112.541 34.7422C113.35 33.5698 111.896 31.2666 110.483 30.4528C109.481 29.8736 108.37 29.6391 107.917 30.2046C108.795 31.5838 109.879 33.1974 109.509 34.0526C109.399 34.3422 108.987 34.8111 108.493 34.356C108.085 32.9856 107.372 31.7264 106.408 30.6735C100.303 25.8187 96.4615 38.6177 97.4081 43.4587L98.9996 43.5553C99.3417 42.4639 99.4766 41.3177 99.3975 40.1762C99.4935 38.2867 101.785 38.1074 102.265 36.5765C102.265 36.4662 101.071 36.5765 101.167 35.7628C101.205 35.6606 101.265 35.5684 101.343 35.4932C101.421 35.4179 101.516 35.3615 101.619 35.3283C101.722 35.295 101.831 35.2858 101.938 35.3014C102.046 35.3169 102.148 35.3568 102.237 35.418C103.719 36.3145 104.666 36.3007 105.077 35.7214C105.393 35.2062 105.524 34.5977 105.448 33.9974C105.448 33.5836 105.626 33.4871 105.969 33.7629C106.278 34.1189 106.453 34.573 106.463 35.0456C106.271 36.5765 104.213 37.6247 105.557 38.8936C105.654 38.9763 105.818 39.0039 105.873 39.1418C106.175 39.9693 105.873 41.9002 107.478 42.3692C107.652 42.4431 107.843 42.4668 108.03 42.4375C108.216 42.4083 108.391 42.3273 108.535 42.2037C109.756 41.3761 107.327 40.4383 108.246 39.8038ZM104.336 48.9755C106.669 50.0099 103.719 52.4098 103.527 49.3479C102.608 49.1548 101.936 50.0789 101.058 49.6238C100.399 49.3066 99.3426 47.9136 99.8365 48.2446C100.564 48.6445 100.248 46.024 98.4645 45.9827H97.4356C98.1078 54.4372 107.986 54.5062 106.6 50.0513C106.56 49.8072 106.461 49.5765 106.313 49.379C106.165 49.1815 105.971 49.0231 105.749 48.9174C105.526 48.8116 105.281 48.7617 105.035 48.7718C104.789 48.7819 104.55 48.8518 104.336 48.9755ZM84.3609 48.9755C82.0149 50.0099 84.9646 52.4098 85.1567 49.3479C86.0896 49.1548 86.7618 50.0789 87.6262 49.6238C88.2847 49.3066 89.3411 47.9136 88.8472 48.2446C88.1201 48.6445 88.4768 46.0378 90.3015 45.9827H91.2207C90.5484 54.4372 80.739 54.5062 82.1247 50.0513C82.1693 49.8128 82.2692 49.5881 82.4164 49.3957C82.5635 49.2032 82.7537 49.0483 82.9715 48.9435C83.1893 48.8387 83.4286 48.787 83.67 48.7926C83.9114 48.7981 84.1481 48.8608 84.3609 48.9755ZM86.9814 72.2841C87.0774 66.4777 87.2695 61.2505 87.5576 56.5336C87.7222 55.4992 87.9143 54.5475 88.1201 53.6511C90.044 52.6621 91.5171 50.9689 92.2359 48.9204C92.2026 50.0457 91.9087 51.1477 91.3776 52.1389C90.8466 53.1301 90.0929 53.9832 89.1765 54.6303C89.4097 55.7888 90.2191 55.6095 90.5484 55.7337C90.7216 56.0839 90.7751 56.4818 90.7007 56.8658C90.6263 57.2497 90.4281 57.5983 90.1368 57.8576C90.2514 58.1101 90.4553 58.3107 90.7089 58.4204C90.9625 58.53 91.2477 58.5408 91.5088 58.4507C91.7509 58.7644 91.8707 59.1563 91.8454 59.5526C91.8201 59.9489 91.6516 60.3222 91.3716 60.6022C91.5392 60.7975 91.7749 60.9207 92.0302 60.9463C92.2854 60.972 92.5408 60.8982 92.7435 60.7402C93.0728 61.8711 93.3334 62.409 94.4447 62.7814C95.5423 62.409 95.8167 61.8711 96.1322 60.7402C96.335 60.8982 96.5903 60.972 96.8456 60.9463C97.1008 60.9207 97.3366 60.7975 97.5042 60.6022C97.2241 60.3222 97.0556 59.9489 97.0303 59.5526C97.0051 59.1563 97.1248 58.7644 97.367 58.4507C97.6281 58.5408 97.9132 58.53 98.1668 58.4204C98.4204 58.3107 98.6244 58.1101 98.7389 57.8576C98.4476 57.5983 98.2494 57.2497 98.175 56.8658C98.1006 56.4818 98.1541 56.0839 98.3273 55.7337C98.6429 55.6095 99.4523 55.7336 99.6993 54.6303C98.813 54.0201 98.0768 53.2147 97.5467 52.2755C97.0165 51.3362 96.7064 50.2878 96.6398 49.21C97.4028 51.1743 98.8717 52.779 100.756 53.7062C100.934 54.5613 101.112 55.4716 101.25 56.4646C101.433 61.1171 101.588 66.3213 101.716 72.0772C96.9031 70.6001 91.7513 70.6724 86.9814 72.2841ZM69.4342 27.7082C74.9219 41.9002 77.9814 50.6168 85.6231 72.7944L85.1155 73.0013C75.1552 52.4098 70.6826 44.1345 64.7284 29.6667C57.8627 32.839 51.5343 37.074 45.9739 42.2174C62.2863 55.1682 74.2085 64.8226 84.1551 73.4426C79.3936 75.7827 75.5141 79.6102 73.0973 84.3521C64.4814 74.3943 54.8778 62.4366 42.0639 46.1206C36.8891 51.6906 32.6244 58.0494 29.4282 64.9605C43.3946 71.0704 51.6263 75.0977 72.6171 85.3452C72.5348 85.5107 72.4662 85.69 72.3976 85.8555C50.8443 78.3526 41.8855 75.7045 27.4389 69.6774C24.735 76.8178 23.1835 84.3466 22.8429 91.9791C43.5456 89.5242 58.7879 87.8415 71.9723 86.9175C70.14 91.9071 69.9905 97.3639 71.547 102.447C58.4449 101.509 43.2986 99.8406 22.8017 97.4132C23.0049 105.121 24.4457 112.745 27.0685 119.991C41.4053 114.336 49.9937 111.357 71.9585 103.73C71.9585 103.923 72.0957 104.116 72.1781 104.309C51.7498 114.184 43.6142 118.612 28.9755 124.68C32.1061 131.753 36.3494 138.273 41.5425 143.989C54.4525 127.521 64.0561 115.495 72.7131 105.482C74.9344 110.272 78.6346 114.215 83.2634 116.722C73.3442 125.342 61.4494 134.914 45.2742 147.74C50.9027 153.081 57.3455 157.481 64.358 160.774C70.5866 146.403 74.5241 138.251 84.6216 117.398L85.239 117.674C77.8579 139.079 75.2649 148.016 69.0775 162.774C76.3863 165.577 84.103 167.157 91.9203 167.449C90.0957 149.52 88.8335 133.217 88.024 118.681C92.1356 119.87 96.4888 119.932 100.632 118.86C99.8228 133.369 98.5743 149.575 96.7496 167.477C104.602 167.258 112.366 165.744 119.73 162.994C113.515 148.085 110.922 139.3 103.554 117.922L104.213 117.646C114.283 138.445 118.207 146.609 124.477 161.036C131.576 157.778 138.105 153.386 143.807 148.03C127.591 135.162 115.628 125.577 105.64 116.943C110.303 114.52 114.066 110.651 116.368 105.909C124.998 115.908 134.574 127.976 147.416 144.265C152.706 138.53 157.038 131.972 160.243 124.846C145.385 118.736 137.304 114.322 117.027 104.447C117.123 104.226 117.205 104.006 117.288 103.799C139.102 111.357 147.608 114.322 162.178 120.087C164.848 112.771 166.317 105.066 166.527 97.2753C146.044 99.6889 130.856 101.413 117.782 102.323C119.317 97.2744 119.168 91.8591 117.356 86.9037C130.541 87.8415 145.797 89.5379 166.486 91.9929C166.174 84.2762 164.622 76.6611 161.89 69.4429C147.237 75.5804 138.361 78.2147 116.945 85.6624C116.862 85.4693 116.78 85.2762 116.684 85.0831C137.551 74.8908 145.714 70.9187 159.887 64.7261C156.629 57.7442 152.28 51.3323 147.004 45.7344C134.149 62.0642 124.614 73.9254 116.012 83.8832C113.51 79.2097 109.567 75.4783 104.775 73.2495C114.75 64.533 126.727 54.9061 143.094 41.9416C137.452 36.7857 131.034 32.5591 124.079 29.4184C118.097 43.969 113.638 52.1891 103.692 72.7668L103.157 72.5599C110.771 50.4927 113.762 41.7623 119.346 27.4875C112.127 24.8523 104.536 23.3904 96.8594 23.1568C97.1337 25.9153 97.3807 28.5219 97.6276 31.1286C97.1316 32.6381 96.7959 34.1961 96.6261 35.7766C95.8304 38.2344 95.5456 40.8304 95.7892 43.4036H92.9081C93.1197 41.0837 92.8963 38.7446 92.2496 36.5075C92.104 34.625 91.7119 32.7701 91.0835 30.9907C91.3167 28.4254 91.5774 25.8187 91.838 23.1706C84.1763 23.4649 76.6116 24.9971 69.4342 27.7082ZM96.6398 21.0605C99.8238 21.1527 102.999 21.4429 106.147 21.9293L106.271 21.3501C107.314 15.585 110.016 9.93027 112.746 1.82055C112.184 10.3992 112.39 16.578 111.292 22.3569C111.292 22.5362 111.224 22.7155 111.182 22.8948C114.212 23.5892 117.195 24.4736 120.114 25.5429L120.292 25.0877C122.446 19.5709 126.192 14.6196 130.445 7.15807C128.222 15.4333 127.234 21.5708 125.039 27.0186C125.039 27.1565 124.916 27.2945 124.861 27.4324C127.693 28.7091 130.443 30.1648 133.092 31.7907C133.092 31.6803 133.243 31.5838 133.312 31.4597C136.481 26.5497 141.132 22.3569 146.743 15.916C142.957 23.6258 140.789 29.4046 137.579 34.3284C137.51 34.4249 137.441 34.5215 137.387 34.618C139.961 36.45 142.417 38.4447 144.74 40.59L161.053 27.6944L148.239 44.1345C150.421 46.4347 152.455 48.8716 154.33 51.4305L154.454 51.3616C159.255 48.0239 165.141 45.9413 172.797 42.1485C166.348 47.817 162.15 52.327 157.307 55.6371H157.225C158.903 58.2964 160.41 61.0604 161.739 63.9123C167.089 61.5815 173.277 60.685 181.522 58.4645C174.114 62.7538 169.175 66.3397 163.687 68.643C164.786 71.5898 165.702 74.6022 166.431 77.663C172.097 76.4631 178.312 76.7941 186.749 76.2838C178.71 79.0422 173.14 81.5524 167.542 82.7661C168.081 85.9593 168.416 89.1841 168.544 92.4205L188.629 94.8341L168.653 97.096C168.58 100.329 168.295 103.554 167.803 106.75C173.414 107.854 178.984 110.502 186.886 113.191C178.545 112.626 172.481 112.819 166.842 111.812C166.126 114.912 165.21 117.962 164.098 120.942C169.353 123.122 174.278 126.79 181.467 130.955C173.428 128.79 167.473 127.783 162.164 125.701C160.886 128.608 159.419 131.427 157.774 134.141C162.48 137.3 166.595 141.851 172.865 147.313C165.429 143.63 159.791 141.479 155.03 138.417C153.14 141.079 151.078 143.613 148.856 146.003C152.656 150.83 156.731 156.043 161.204 161.67L145.426 149.34C143.064 151.578 140.557 153.656 137.922 155.56C141.036 160.291 143.094 166.056 146.73 173.49C141.242 167.256 136.92 163.118 133.669 158.471C130.964 160.157 128.155 161.668 125.259 162.994C127.385 168.222 128.291 174.276 130.431 182.303C126.315 175.118 122.817 170.194 120.525 165.008C117.543 166.126 114.49 167.048 111.388 167.766C112.472 173.283 112.184 179.434 112.76 187.682C110.099 179.807 107.629 174.304 106.394 168.746C103.135 169.273 99.844 169.577 96.5438 169.656C95.8761 176.092 95.1398 182.708 94.335 189.503C93.5301 182.662 92.7938 176.037 92.1261 169.628C88.8339 169.52 85.5523 169.193 82.303 168.649C81.0683 174.166 78.585 179.766 75.9235 187.668C76.4722 179.393 76.1704 173.214 77.2954 167.615C74.2157 166.862 71.1867 165.913 68.2269 164.774C65.9357 170.042 62.4098 175.007 58.2391 182.276C60.4068 174.194 61.2985 168.07 63.5074 162.774C60.6432 161.435 57.8664 159.914 55.1934 158.222C51.9144 162.981 47.4693 167.16 41.9267 173.531C45.6446 165.96 47.73 160.112 50.9541 155.326C48.3739 153.422 45.9177 151.353 43.6004 149.133L27.631 161.753L40.2254 145.699C38.0619 143.337 36.0546 140.836 34.2163 138.21C29.3185 141.424 23.57 143.589 15.9008 147.396C22.3078 141.755 26.4923 137.093 31.3901 133.907C29.7606 131.205 28.3079 128.399 27.041 125.508H26.9587C21.4709 127.714 15.4618 128.707 7.17528 130.942C14.5701 126.666 19.5228 122.901 25.0106 120.749H25.1478C24.0624 117.801 23.1733 114.783 22.4862 111.716H22.2667C16.5182 112.819 10.3719 112.598 1.81097 113.178C9.89173 110.419 15.5304 107.661 21.2652 106.668H21.5395C21.0632 103.54 20.7883 100.384 20.7164 97.2201L0 94.71C7.49082 93.8135 14.378 92.9722 20.7438 92.2274C20.8763 89.0743 21.2063 85.9327 21.7316 82.8212L21.2652 82.7523C15.5304 81.5524 9.93289 79.0008 1.81097 76.2286C10.3308 76.7941 16.5594 76.4631 22.2667 77.7044L22.7606 77.8009C23.4884 74.7761 24.4049 71.8004 25.5045 68.8913L24.9831 68.6706C19.5914 66.3673 14.5975 62.7676 7.14784 58.4645C15.3795 60.685 21.567 61.5815 26.9176 63.9123L27.4663 64.1468C28.7692 61.2976 30.2492 58.5337 31.8977 55.8716L31.3627 55.513C26.5197 52.2167 22.3216 47.6929 15.8597 42.0244C23.5151 45.8172 29.4008 47.9136 34.2026 51.2374L34.7651 51.6098C36.602 49.0859 38.5904 46.677 40.7193 44.3966L27.631 27.7358L44.3138 40.9072C46.5923 38.7847 48.9977 36.8041 51.5166 34.9766C51.3931 34.7697 51.2422 34.5767 51.105 34.3698C47.8946 29.4598 45.7407 23.6671 41.9404 15.9574C47.5653 22.3983 52.2025 26.5911 55.3717 31.5148L55.7833 32.1217C58.4309 30.484 61.1805 29.019 64.015 27.7358C63.9189 27.5151 63.8229 27.2945 63.7406 27.06C61.5455 21.5432 60.544 15.516 58.3214 7.19945C62.5882 14.6196 66.3198 19.6123 68.4738 25.1291C68.5561 25.3636 68.6522 25.5842 68.7482 25.8049C71.6397 24.6927 74.6002 23.7713 77.611 23.0465C77.611 22.812 77.5149 22.5914 77.4738 22.3569C76.3762 16.578 76.582 10.3992 76.0195 1.82055C78.7634 9.93027 81.5073 15.6126 82.4951 21.3501C82.4951 21.5845 82.5911 21.8052 82.6323 22.0397C85.7725 21.5118 88.9441 21.1939 92.1261 21.088C92.7664 14.3023 93.5072 7.27301 94.3487 0C95.1993 7.26381 95.963 14.284 96.6398 21.0605Z" fill="url(#paint0_linear_5168_445)"/>
<defs>
<linearGradient id="paint0_linear_5168_445" x1="94.4996" y1="2.20673" x2="94.4996" y2="185.806" gradientUnits="userSpaceOnUse">
<stop stop-color="#EDBF00"/>
<stop offset="1" stop-color="#99741C"/>
</linearGradient>
</defs>
</svg>
