<svg width="91" height="91" viewBox="0 0 91 91" fill="none" xmlns="http://www.w3.org/2000/svg">
<path d="M75.1567 60.8994H72.1519V58.6499H75.1567C75.5662 58.6499 75.8983 58.5807 76.1528 58.4424C76.4074 58.304 76.5928 58.1131 76.709 57.8696C76.8307 57.6206 76.8916 57.3411 76.8916 57.0312C76.8916 56.6992 76.8307 56.3921 76.709 56.1099C76.5928 55.8276 76.4074 55.6007 76.1528 55.4292C75.8983 55.2521 75.5662 55.1636 75.1567 55.1636H73.2476V65H70.334V52.9141H75.1567C76.1252 52.9141 76.958 53.0911 77.6553 53.4453C78.3581 53.7995 78.8976 54.2865 79.2739 54.9062C79.6502 55.5205 79.8384 56.2233 79.8384 57.0146C79.8384 57.7949 79.6502 58.4756 79.2739 59.0566C78.8976 59.6377 78.3581 60.0915 77.6553 60.418C76.958 60.7389 76.1252 60.8994 75.1567 60.8994Z" fill="#464646"/>
<path d="M68.8228 58.7163V59.2061C68.8228 60.1302 68.6927 60.9603 68.4326 61.6963C68.1781 62.4268 67.8156 63.0521 67.3452 63.5723C66.8748 64.0869 66.3187 64.4826 65.6768 64.7593C65.0348 65.0304 64.3265 65.166 63.5518 65.166C62.7715 65.166 62.0576 65.0304 61.4102 64.7593C60.7682 64.4826 60.2093 64.0869 59.7334 63.5723C59.263 63.0521 58.8978 62.4268 58.6377 61.6963C58.3831 60.9603 58.2559 60.1302 58.2559 59.2061V58.7163C58.2559 57.7922 58.3831 56.9621 58.6377 56.2261C58.8978 55.4901 59.2603 54.8647 59.7251 54.3501C60.1955 53.8299 60.7516 53.4342 61.3936 53.1631C62.041 52.8864 62.7549 52.748 63.5352 52.748C64.3099 52.748 65.0182 52.8864 65.6602 53.1631C66.3076 53.4342 66.8665 53.8299 67.3369 54.3501C67.8073 54.8647 68.1725 55.4901 68.4326 56.2261C68.6927 56.9621 68.8228 57.7922 68.8228 58.7163ZM65.8677 59.2061V58.6997C65.8677 58.1021 65.8151 57.5763 65.71 57.1226C65.6104 56.6632 65.4609 56.2786 65.2617 55.9688C65.0625 55.6589 64.8162 55.4264 64.5229 55.2715C64.2352 55.111 63.9059 55.0308 63.5352 55.0308C63.1478 55.0308 62.8102 55.111 62.5225 55.2715C62.2347 55.4264 61.994 55.6589 61.8003 55.9688C61.6066 56.2786 61.46 56.6632 61.3604 57.1226C61.2663 57.5763 61.2192 58.1021 61.2192 58.6997V59.2061C61.2192 59.7982 61.2663 60.3239 61.3604 60.7832C61.46 61.237 61.6066 61.6216 61.8003 61.937C61.9995 62.2524 62.243 62.4904 62.5308 62.6509C62.8241 62.8114 63.1644 62.8916 63.5518 62.8916C63.9225 62.8916 64.2518 62.8114 64.5396 62.6509C64.8273 62.4904 65.068 62.2524 65.2617 61.937C65.4609 61.6216 65.6104 61.237 65.71 60.7832C65.8151 60.3239 65.8677 59.7982 65.8677 59.2061Z" fill="#464646"/>
<path d="M45.1162 60.2769L40.3599 52.9141H44.0371L46.5107 57.6538H48.5195L48.1709 60.2769H45.1162ZM46.4443 59.7705L43.8794 65H40.252L43.9624 58.3013L46.4443 59.7705ZM50.603 52.9141V65H47.6978V52.9141H50.603ZM57.8164 52.9141L53.1763 60.2769H50.0967L49.7397 57.6538H51.7734L54.1475 52.9141H57.8164ZM54.2969 65L51.8398 59.7705L54.3301 58.3013L57.9326 65H54.2969Z" fill="#464646"/>
<path d="M34.6152 55.4541L31.6685 65H28.5391L32.98 52.9141H34.9639L34.6152 55.4541ZM37.0557 65L34.1006 55.4541L33.7188 52.9141H35.7275L40.1934 65H37.0557ZM36.9395 60.4927V62.7422H30.7388V60.4927H36.9395Z" fill="#464646"/>
<path d="M15.8799 52.9141H18.2539L20.9517 61.3228L23.6494 52.9141H26.0234L21.9146 65H19.9888L15.8799 52.9141ZM14.4355 52.9141H16.8926L17.3491 62.1777V65H14.4355V52.9141ZM25.0107 52.9141H27.4761V65H24.5542V62.1777L25.0107 52.9141Z" fill="#464646"/>
<path d="M67.7437 34.9077H70.6489C70.6102 35.7489 70.3833 36.4904 69.9683 37.1323C69.5532 37.7743 68.9777 38.2751 68.2417 38.6348C67.5112 38.9889 66.6479 39.166 65.6519 39.166C64.8439 39.166 64.1217 39.0304 63.4854 38.7593C62.8545 38.4881 62.3177 38.098 61.875 37.5889C61.4378 37.0798 61.103 36.4627 60.8706 35.7378C60.6437 35.0129 60.5303 34.1966 60.5303 33.2891V32.6333C60.5303 31.7257 60.6493 30.9095 60.8872 30.1846C61.1307 29.4541 61.4738 28.8343 61.9165 28.3252C62.3647 27.8105 62.9015 27.4176 63.5269 27.1465C64.1522 26.8753 64.8467 26.7397 65.6104 26.7397C66.6618 26.7397 67.55 26.9279 68.2749 27.3042C68.9998 27.6805 69.5615 28.1979 69.96 28.8564C70.3584 29.5094 70.5936 30.2537 70.6655 31.0894H67.7603C67.7492 30.6356 67.6717 30.2565 67.5278 29.9521C67.384 29.6423 67.1571 29.4098 66.8472 29.2549C66.5373 29.0999 66.125 29.0225 65.6104 29.0225C65.2507 29.0225 64.938 29.0889 64.6724 29.2217C64.4067 29.3545 64.1854 29.5648 64.0083 29.8525C63.8312 30.1403 63.6984 30.5138 63.6099 30.9731C63.5269 31.4269 63.4854 31.9748 63.4854 32.6167V33.2891C63.4854 33.931 63.5241 34.4788 63.6016 34.9326C63.679 35.3864 63.8035 35.7572 63.9751 36.0449C64.1466 36.3327 64.368 36.5457 64.6392 36.6841C64.9159 36.8169 65.2534 36.8833 65.6519 36.8833C66.0946 36.8833 66.4681 36.8141 66.7725 36.6758C67.0768 36.5319 67.312 36.3161 67.478 36.0283C67.644 35.735 67.7326 35.3615 67.7437 34.9077Z" fill="#464646"/>
<path d="M54.6196 34.8994H51.6147V32.6499H54.6196C55.0291 32.6499 55.3612 32.5807 55.6157 32.4424C55.8703 32.304 56.0557 32.1131 56.1719 31.8696C56.2936 31.6206 56.3545 31.3411 56.3545 31.0312C56.3545 30.6992 56.2936 30.3921 56.1719 30.1099C56.0557 29.8276 55.8703 29.6007 55.6157 29.4292C55.3612 29.2521 55.0291 29.1636 54.6196 29.1636H52.7104V39H49.7969V26.9141H54.6196C55.5881 26.9141 56.4209 27.0911 57.1182 27.4453C57.821 27.7995 58.3605 28.2865 58.7368 28.9062C59.1131 29.5205 59.3013 30.2233 59.3013 31.0146C59.3013 31.7949 59.1131 32.4756 58.7368 33.0566C58.3605 33.6377 57.821 34.0915 57.1182 34.418C56.4209 34.7389 55.5881 34.8994 54.6196 34.8994Z" fill="#464646"/>
<path d="M48.2866 32.7163V33.2061C48.2866 34.1302 48.1566 34.9603 47.8965 35.6963C47.6419 36.4268 47.2795 37.0521 46.8091 37.5723C46.3387 38.0869 45.7826 38.4826 45.1406 38.7593C44.4987 39.0304 43.7904 39.166 43.0156 39.166C42.2354 39.166 41.5215 39.0304 40.874 38.7593C40.2321 38.4826 39.6732 38.0869 39.1973 37.5723C38.7269 37.0521 38.3617 36.4268 38.1016 35.6963C37.847 34.9603 37.7197 34.1302 37.7197 33.2061V32.7163C37.7197 31.7922 37.847 30.9621 38.1016 30.2261C38.3617 29.4901 38.7241 28.8647 39.189 28.3501C39.6593 27.8299 40.2155 27.4342 40.8574 27.1631C41.5049 26.8864 42.2188 26.748 42.999 26.748C43.7738 26.748 44.4821 26.8864 45.124 27.1631C45.7715 27.4342 46.3304 27.8299 46.8008 28.3501C47.2712 28.8647 47.6364 29.4901 47.8965 30.2261C48.1566 30.9621 48.2866 31.7922 48.2866 32.7163ZM45.3315 33.2061V32.6997C45.3315 32.1021 45.279 31.5763 45.1738 31.1226C45.0742 30.6632 44.9248 30.2786 44.7256 29.9688C44.5264 29.6589 44.2801 29.4264 43.9868 29.2715C43.6991 29.111 43.3698 29.0308 42.999 29.0308C42.6117 29.0308 42.2741 29.111 41.9863 29.2715C41.6986 29.4264 41.4578 29.6589 41.2642 29.9688C41.0705 30.2786 40.9238 30.6632 40.8242 31.1226C40.7301 31.5763 40.6831 32.1021 40.6831 32.6997V33.2061C40.6831 33.7982 40.7301 34.3239 40.8242 34.7832C40.9238 35.237 41.0705 35.6216 41.2642 35.937C41.4634 36.2524 41.7069 36.4904 41.9946 36.6509C42.2879 36.8114 42.6283 36.8916 43.0156 36.8916C43.3864 36.8916 43.7157 36.8114 44.0034 36.6509C44.2912 36.4904 44.5319 36.2524 44.7256 35.937C44.9248 35.6216 45.0742 35.237 45.1738 34.7832C45.279 34.3239 45.3315 33.7982 45.3315 33.2061Z" fill="#464646"/>
<path d="M28.5396 27.9434H31.561C32.2915 27.9434 32.9639 28.0623 33.5781 28.3003C34.1924 28.5382 34.7264 28.8786 35.1802 29.3213C35.634 29.764 35.9854 30.298 36.2344 30.9233C36.4834 31.5487 36.6079 32.2515 36.6079 33.0317C36.6079 33.7843 36.4834 34.465 36.2344 35.0737C35.9854 35.6825 35.634 36.2026 35.1802 36.6343C34.7264 37.0659 34.1924 37.3979 33.5781 37.6304C32.9639 37.8573 32.2915 37.9707 31.561 37.9707H28.5396C27.8035 37.9707 27.1257 37.8573 26.5059 37.6304C25.8861 37.3979 25.3465 37.0687 24.8872 36.6426C24.4334 36.2109 24.0793 35.6935 23.8247 35.0903C23.5757 34.4816 23.4512 33.8009 23.4512 33.0483C23.4512 32.2681 23.5757 31.5653 23.8247 30.9399C24.0793 30.3146 24.4334 29.7778 24.8872 29.3296C25.3465 28.8813 25.8861 28.5382 26.5059 28.3003C27.1257 28.0623 27.8035 27.9434 28.5396 27.9434ZM28.5396 30.2842C28.0968 30.2842 27.6984 30.3838 27.3442 30.583C26.9901 30.7822 26.7106 31.0866 26.5059 31.4961C26.3011 31.9001 26.1987 32.4175 26.1987 33.0483C26.1987 33.4855 26.2596 33.8674 26.3813 34.1938C26.5031 34.5203 26.6719 34.7887 26.8877 34.999C27.1035 35.2093 27.3525 35.367 27.6348 35.4722C27.917 35.5773 28.2186 35.6299 28.5396 35.6299H31.5776C32.0093 35.6299 32.3966 35.5358 32.7397 35.3477C33.0828 35.154 33.354 34.8634 33.5532 34.4761C33.758 34.0887 33.8604 33.6073 33.8604 33.0317C33.8604 32.5614 33.8022 32.1546 33.686 31.8115C33.5698 31.4684 33.4066 31.1834 33.1963 30.9565C32.9915 30.7297 32.7508 30.5609 32.4741 30.4502C32.1974 30.3395 31.8986 30.2842 31.5776 30.2842H28.5396ZM31.4448 26.416V39.498H28.6475V26.416H31.4448Z" fill="#464646"/>
<path d="M84 45.5C84 24.237 66.763 7 45.5 7C24.237 7 7 24.237 7 45.5C7 66.763 24.237 84 45.5 84V91C20.371 91 0 70.629 0 45.5C0 20.371 20.371 0 45.5 0C70.629 0 91 20.371 91 45.5C91 70.629 70.629 91 45.5 91V84C66.763 84 84 66.763 84 45.5Z" fill="#B5B5B5"/>
<path d="M19.4713 78.5243L14.5216 73.5745L73.5747 14.5214L78.5244 19.4712L19.4713 78.5243Z" fill="#B5B5B5"/>
</svg>
