<svg width="24" height="24" viewBox="0 0 24 24" fill="none" xmlns="http://www.w3.org/2000/svg">
<g clip-path="url(#clip0_8442_60)">
<path d="M14.4627 0.391001C12.8885 -0.110053 11.2009 -0.131723 9.61439 0.328745C8.02786 0.789214 6.61407 1.71103 5.55273 2.977L9.49773 6.293L14.4627 0.391001Z" fill="#1A73E8"/>
<path d="M5.55167 2.977C4.29088 4.47659 3.6012 6.37383 3.60467 8.333C3.58312 9.70285 3.86449 11.0605 4.42867 12.309L9.49667 6.293L5.55167 2.977Z" fill="#EA4335"/>
<path d="M11.9371 5.15C12.3559 5.14868 12.7709 5.23004 13.1582 5.38941C13.5456 5.54879 13.8977 5.78304 14.1943 6.07874C14.4909 6.37444 14.7263 6.72577 14.8868 7.1126C15.0474 7.49944 15.1301 7.91416 15.1301 8.333C15.1315 9.08885 14.861 9.81999 14.3681 10.393L19.3321 4.491C18.3169 2.52719 16.5651 1.04546 14.4601 0.369999L9.49609 6.293C9.79352 5.93429 10.1666 5.64579 10.5886 5.44819C11.0106 5.25058 11.4711 5.14875 11.9371 5.15Z" fill="#4285F4"/>
<path d="M11.9387 11.526C11.0919 11.526 10.2797 11.1896 9.6809 10.5908C9.08209 9.99199 8.74569 9.17984 8.74569 8.333C8.74241 7.57858 9.00915 6.84788 9.49769 6.273L4.42969 12.308C5.48349 14.2463 6.75142 16.0604 8.20969 17.716L14.3897 10.393C14.0902 10.7512 13.7151 11.0386 13.2913 11.2345C12.8675 11.4304 12.4056 11.5299 11.9387 11.526Z" fill="#FBBC04"/>
<path d="M14.2569 19.714C17.0369 15.368 20.2719 13.39 20.2719 8.384C20.2718 7.04665 19.9501 5.72894 19.3339 4.542L8.21094 17.716C8.68494 18.334 9.15894 18.993 9.62294 19.714C11.3219 22.33 10.8479 23.896 11.9399 23.896C13.0319 23.896 12.5579 22.33 14.2569 19.714Z" fill="#34A853"/>
</g>
<defs>
<clipPath id="clip0_8442_60">
<rect width="24" height="24" fill="white"/>
</clipPath>
</defs>
</svg>
