<svg width="67" height="67" viewBox="0 0 67 67" fill="none" xmlns="http://www.w3.org/2000/svg">
<path fill-rule="evenodd" clip-rule="evenodd" d="M66.427 33.2135C66.427 51.5568 51.5568 66.427 33.2135 66.427C14.8702 66.427 0 51.5568 0 33.2135C0 14.8702 14.8702 0 33.2135 0C51.5568 0 66.427 14.8702 66.427 33.2135ZM47.2213 20.1466L15.1979 32.4937C13.0031 33.3517 13.0418 34.5668 14.8215 35.1314L23.0197 37.6888L42.0372 25.7154C42.9201 25.1286 43.7394 25.4607 43.0696 26.0503L27.6807 39.9529L27.0911 48.403C27.9491 48.403 28.3228 48.0293 28.7656 47.5865L32.7706 43.7282L41.074 49.8477C42.588 50.7058 43.6702 50.2629 44.0743 48.4417L49.5269 22.7538L49.5241 22.7566C50.0057 20.5092 48.7076 19.6096 47.2213 20.1466Z" fill="#039BE5"/>
</svg>
