<svg width="33" height="33" viewBox="0 0 33 33" fill="none" xmlns="http://www.w3.org/2000/svg">
<path d="M10.3555 1.14938C14.4803 -0.494634 19.285 -0.380914 23.2998 1.52856C22.1558 1.35475 20.9922 1.48578 19.8597 1.67724C16.7842 2.25806 13.8614 3.70518 11.5769 5.85499C9.38632 8.0082 7.85127 10.8651 7.41778 13.9216C7.13093 16.0874 7.39673 18.3591 8.36861 20.3303C9.37002 22.3986 11.1328 24.0949 13.2575 24.9704C15.3048 25.8367 17.6797 25.8272 19.7535 25.0539C22.865 23.912 25.1007 20.8286 25.3563 17.5345C25.5172 15.3755 24.992 13.0787 23.5415 11.4228C22.1569 9.80191 20.1316 8.90913 18.105 8.40095C17.9964 6.40221 18.9381 4.42756 20.4314 3.12776C21.2607 2.37993 22.2899 1.90332 23.3541 1.59815L23.4349 1.57031C26.4816 3.03135 29.0703 5.44085 30.7198 8.39892C32.133 10.9174 32.8699 13.8194 32.7969 16.7103C32.783 20.4484 31.3858 24.1496 28.9906 27.0079C26.7257 29.7337 23.5578 31.6945 20.1052 32.4796C16.6433 33.2784 12.9188 32.9338 9.67893 31.4626C6.5087 30.0467 3.82288 27.5853 2.11437 24.5576C0.693048 22.0415 -0.0588597 19.1405 0.00360122 16.2462C0.0103905 12.6402 1.29084 9.06189 3.52653 6.24198C5.31244 3.99033 7.68154 2.20001 10.3555 1.14938Z" fill="#E60000"/>
<path d="M19.8596 1.67709C20.9921 1.48563 22.1557 1.3546 23.2997 1.52841L23.464 1.55624L23.354 1.59799C22.2898 1.90317 21.2606 2.37977 20.4313 3.12761C18.938 4.42741 17.9963 6.40205 18.105 8.4008C20.1315 8.90898 22.1568 9.80176 23.5414 11.4227C24.9919 13.0786 25.5171 15.3754 25.3562 17.5344C25.1006 20.8285 22.8649 23.9118 19.7534 25.0538C17.6796 25.8271 15.3047 25.8366 13.2575 24.9703C11.1328 24.0948 9.36995 22.3985 8.36854 20.3302C7.39666 18.3589 7.13087 16.0872 7.41771 13.9215C7.8512 10.865 9.38624 8.00805 11.5768 5.85484C13.8614 3.70503 16.7841 2.25791 19.8596 1.67709Z" fill="white"/>
</svg>
