<svg width="16" height="16" viewBox="0 0 16 16" fill="none" xmlns="http://www.w3.org/2000/svg">
<rect width="16" height="16" rx="8" fill="#A4A4A4"/>
<path d="M7.82526 4.00811L8.00769 4.00716L8.33408 4.00906C8.76992 4.01193 9.56364 4.02147 10.3634 4.0501L10.4918 4.05487C11.3915 4.08874 12.2762 4.1479 12.671 4.25C12.9253 4.31521 13.1573 4.44278 13.344 4.62004C13.5307 4.79731 13.6655 5.0181 13.7351 5.2605C14.1315 6.78244 14.04 9.18702 13.7426 10.7471C13.6738 10.9891 13.5395 11.2096 13.3533 11.3865C13.1665 11.5647 12.9338 11.6928 12.6785 11.7576C11.8038 11.9852 8.44004 11.999 8.04018 12L7.63733 11.9981C7.22897 11.9952 6.52772 11.9866 5.79798 11.9628L5.56557 11.9547L5.34365 11.9461C4.49895 11.9113 3.69423 11.8531 3.32437 11.7572C3.07007 11.6919 2.83807 11.5644 2.65139 11.3871C2.46472 11.2098 2.32988 10.9891 2.26025 10.7467C1.86189 9.22949 1.97085 6.8249 2.25275 5.26002C2.3223 5.01754 2.45712 4.79664 2.64379 4.61929C2.83047 4.44194 3.06251 4.31429 3.31687 4.24905C4.13158 4.03721 7.09552 4.00573 7.83026 4L7.82526 4.00811ZM6.49573 6.10735V9.92414L9.99448 8.01574L6.49573 6.10735Z" fill="white"/>
</svg>
