<svg width="50" height="50" viewBox="0 0 50 50" fill="none" xmlns="http://www.w3.org/2000/svg">
<g clip-path="url(#clip0_8398_58)">
<path d="M25 0C18.3711 0 12.0078 2.63555 7.32422 7.32227C2.63583 12.0109 0.0013416 18.3695 0 25C0 31.6277 2.63672 37.991 7.32422 42.6777C12.0078 47.3645 18.3711 50 25 50C31.6289 50 37.9922 47.3645 42.6758 42.6777C47.3633 37.991 50 31.6277 50 25C50 18.3723 47.3633 12.009 42.6758 7.32227C37.9922 2.63555 31.6289 0 25 0Z" fill="url(#paint0_linear_8398_58)"/>
<path d="M11.3163 24.736C18.6053 21.561 23.4647 19.4677 25.8944 18.4563C32.8397 15.5684 34.2811 15.0668 35.2225 15.0498C35.4295 15.0465 35.8905 15.0977 36.1913 15.3408C36.4413 15.5459 36.5116 15.8233 36.5467 16.018C36.578 16.2125 36.6209 16.6559 36.5858 17.002C36.2108 20.9551 34.5819 30.5481 33.7538 34.9758C33.4061 36.8492 32.7147 37.4774 32.0467 37.5387C30.5936 37.6723 29.492 36.5793 28.0858 35.6578C25.8866 34.2153 24.6444 33.3176 22.5077 31.9102C20.0389 30.2836 21.6405 29.3895 23.0467 27.9285C23.4139 27.5461 29.8124 21.7278 29.9334 21.2C29.9491 21.134 29.9647 20.8879 29.8163 20.7582C29.6717 20.6282 29.4569 20.6727 29.3006 20.7078C29.078 20.7578 25.5663 23.0813 18.7538 27.6778C17.7577 28.3629 16.8553 28.6969 16.0428 28.6793C15.1522 28.6602 13.4334 28.1746 12.1561 27.7598C10.5936 27.2508 9.34751 26.9817 9.45688 26.1172C9.51157 25.6672 10.1327 25.2067 11.3163 24.736Z" fill="white"/>
</g>
<defs>
<linearGradient id="paint0_linear_8398_58" x1="25" y1="0" x2="25" y2="50" gradientUnits="userSpaceOnUse">
<stop stop-color="#2AABEE"/>
<stop offset="1" stop-color="#229ED9"/>
</linearGradient>
<clipPath id="clip0_8398_58">
<rect width="50" height="50" fill="white"/>
</clipPath>
</defs>
</svg>
