<svg width="50" height="50" viewBox="0 0 50 50" fill="none" xmlns="http://www.w3.org/2000/svg">
<rect width="50" height="50" rx="25" fill="#DA0000"/>
<path d="M24.4758 13.0253L25.0231 13.0224L26.0022 13.0283C27.3098 13.0373 29.6909 13.0671 32.0901 13.1565L32.4754 13.1715C35.1745 13.2773 37.8285 13.4622 39.0131 13.7812C39.776 13.985 40.472 14.3837 41.032 14.9376C41.592 15.4916 41.9966 16.1816 42.2054 16.9391C43.3945 21.6951 43.1201 29.2094 42.2279 34.0848C42.0213 34.841 41.6185 35.5299 41.0599 36.0827C40.4996 36.6398 39.8013 37.04 39.0356 37.2426C36.4115 37.9538 26.3201 37.997 25.1205 38L23.912 37.994C22.6869 37.9851 20.5832 37.9583 18.394 37.8837L17.6967 37.8584L17.0309 37.8315C14.4968 37.7227 12.0827 37.5408 10.9731 37.2411C10.2102 37.0373 9.5142 36.6387 8.95418 36.0847C8.39417 35.5308 7.98963 34.8408 7.78074 34.0833C6.58567 29.3421 6.91255 21.8278 7.75825 16.9376C7.96691 16.1798 8.37135 15.4895 8.93138 14.9353C9.49141 14.3811 10.1875 13.9822 10.9506 13.7783C13.3947 13.1163 22.2866 13.0179 24.4908 13L24.4758 13.0253ZM20.4872 19.5855V31.5129L30.9835 25.5492L20.4872 19.5855Z" fill="white"/>
</svg>
